<svg xmlns="http://www.w3.org/2000/svg" viewBox="0 0 3643.21 155.09"><g id="Layer_2" data-name="Layer 2"><g id="Layer_1-2" data-name="Layer 1"><path d="M62.23,155.09l-23.8-5.46-19.9-9L5.46,126.22,0,111.78l37.85-10.73,4.48,10.73L47.21,119l8.58,4.88,10.54,2.34H79.79l9.95-2.34,6.05-5.27v-7l-5.66-6.25-9-3.7-44.08-10L18.34,80.37,9,61.45v-22L18.34,23l14-10.14L56,6.83H84.28l23.21,5.27L123.68,22l10.54,15.42L97.93,51.89l-5.66-8.78L84.67,38,74.52,35.12H61.26l-9.17,2.34-5.66,5.07v6.24l5.07,5.85,10.93,4.1,43.5,9.75L127,81.16l10.73,19.11v24.39l-11.32,15.22-18.33,10.33-23.8,4.88Z"/><path d="M189.62,126l7,7c4.68-4.68,9.75-7.61,18.14-7.61h9.75c8.39,0,13.46,2.93,18.15,7.61l7-7c-4.68-4.68-7.61-9.75-7.61-18.14V9.75H285v99.11l-4.29,17.36-12.68,15.41L254,150l-17.36,5.07H202.5L185.72,150l-14.43-8.39-12.68-15.41-4.3-17.36V9.75h42.92v98.13C197.23,116.27,194.31,121.34,189.62,126Z"/><path d="M299.65,152.17V122.9h23.41c8.39,0,13.46,2.93,18.14,7.61l7-7c-4.68-4.68-7.61-9.76-7.61-18.15V56.57c0-8.38,2.93-13.46,7.61-18.14l-7-7c-4.68,4.68-9.75,7.61-18.14,7.61H299.65V9.75H424.5V39H401.09c-8.38,0-13.46-2.93-18.14-7.61l-7,7c4.68,4.68,7.61,9.76,7.61,18.14v48.77c0,8.39-2.93,13.47-7.61,18.15l7,7c4.68-4.68,9.76-7.61,18.14-7.61H424.5v29.27Z"/><path d="M492.59,155.09l-23.8-5.46-19.9-9-13.07-14.44-5.46-14.44,37.85-10.73,4.48,10.73,4.88,7.22,8.58,4.88,10.54,2.34h13.46l10-2.34,6-5.27v-7l-5.66-6.25-9-3.7-44.09-10L448.7,80.37l-9.37-18.92v-22L448.7,23l14-10.14,23.61-6.05h28.28l23.22,5.27L554,22l10.54,15.42L528.29,51.89l-5.66-8.78L515,38l-10.15-2.92H491.62l-9.17,2.34-5.66,5.07v6.24l5.07,5.85,10.93,4.1,43.5,9.75,21.07,12.69,10.73,19.11v24.39l-11.32,15.22-18.33,10.33-23.81,4.88Z"/><path d="M688.65,126l7,7c4.69-4.68,9.76-7.61,18.15-7.61h1c8.39,0,13.46,2.93,18.15,7.61l7-7c-4.68-4.68-7.61-9.75-7.61-18.14V56.57c0-8.38,2.93-13.46,7.61-18.14l-7-7c-4.69,4.68-9.76,7.61-18.15,7.61H677.14V9.75h98.13V113.54l-8.78,20.68-17.36,13.85-22,7H704.45l-23.41-7-16-13.85-7.42-20.68V94.23h38.63v13.65C696.26,116.27,693.33,121.34,688.65,126Z"/><path d="M834,123.49l7,7c4.68-4.68,9.76-7.61,18.15-7.61h65.93v29.27H798.68V9.75H921.19V91.69h-62c-8.39,0-13.47-2.93-18.15-7.61l-7,7c4.49,4.49,7.61,8.78,7.61,16.2S838.48,119,834,123.49Zm54.23-85.06-7-7c-4.68,4.68-9.75,7.61-18.14,7.61h-3.9c-8.39,0-13.47-2.93-18.15-7.61l-7,7c3.9,3.9,7.61,6.63,7.61,12.29S837.89,59.11,834,63l7,7c4.68-4.69,9.76-7.61,18.15-7.61h3.9c8.39,0,13.46,2.92,18.14,7.61l7-7c-3.9-3.9-7.61-6.63-7.61-12.29S884.32,42.33,888.22,38.43Z"/><path d="M1024.78,126l7,7c4.68-4.68,9.75-7.61,18.14-7.61h9.75c8.39,0,13.46,2.93,18.15,7.61l7-7c-4.68-4.68-7.61-9.75-7.61-18.14V9.75h42.92v99.11l-4.29,17.36-12.68,15.41-14,8.39-17.36,5.07h-34.14L1020.88,150l-14.44-8.39-12.68-15.41-4.29-17.36V9.75h42.92v98.13C1032.39,116.27,1029.46,121.34,1024.78,126Z"/><path d="M1235.28,9.75h39V152.17h-39V97.54L1201.14,71.4c-8-6.05-14.44-17.75-18.53-26.53l-9.17,4.29c4.48,8.78,9.17,18.92,9.17,31.8v71.21h-39V9.75h40.19l33,24.78c9,6.83,15.8,20.29,18.53,26.53l9.17-4.29c-3.9-7.61-9.17-17.56-9.17-31.8Z"/><path d="M1477,103v20.88l-6.83,14-7.41,7.42-20.49,6.83h-95.78V9.75h91.88l20.49,6.83,7.41,7.42,6.83,14V56.57l-4.1,8-7.8,5.85A54.22,54.22,0,0,1,1444,72.77v9.75c6.83,0,10.34.78,16.39,2.34l11.12,5.46Zm-41-64.57-7-7c-4.68,4.68-9.76,7.61-18.14,7.61H1407c-8.39,0-13.46-2.93-18.14-7.61l-7,7c3.9,3.9,7.61,6.63,7.61,12.29s-3.71,8.39-7.61,12.29l7,7c4.68-4.69,9.75-7.61,18.14-7.61h3.91c8.38,0,13.46,2.92,18.14,7.61l7-7c-3.9-3.9-7.61-6.63-7.61-12.29S1432.12,42.33,1436,38.43Zm-21.85,84.47c8.39,0,13.46,2.93,18.14,7.61l7-7c-4.49-4.49-7.61-8.78-7.61-16.19s3.12-11.71,7.61-16.2l-7-7c-4.68,4.68-9.75,7.61-18.14,7.61H1407c-8.39,0-13.46-2.93-18.14-7.61l-7,7c4.48,4.49,7.61,8.78,7.61,16.2s-3.13,11.7-7.61,16.19l7,7c4.68-4.68,9.75-7.61,18.14-7.61Z"/><path d="M1533.76,126l7,7c4.68-4.68,9.76-7.61,18.14-7.61h9.76c8.39,0,13.46,2.93,18.14,7.61l7-7c-4.68-4.68-7.6-9.75-7.6-18.14V9.75h42.91v99.11l-4.29,17.36-12.68,15.41-14,8.39-17.37,5.07h-34.14L1529.86,150l-14.44-8.39-12.68-15.41-4.29-17.36V9.75h42.92v98.13C1541.37,116.27,1538.44,121.34,1533.76,126Z"/><path d="M1695.48,105.34c0,8.39-2.92,13.47-7.6,18.15l7,7c4.68-4.68,9.75-7.61,18.14-7.61h56.19v29.27H1652.57V9.75h42.91Z"/><path d="M1827.75,105.34c0,8.39-2.93,13.47-7.61,18.15l7,7c4.68-4.68,9.75-7.61,18.14-7.61h56.18v29.27H1784.83V9.75h42.92Z"/><path d="M1917.1,9.75h92.47l22,6.83,15,13.85,7.21,13.66,6.05,20.09V97.74l-6.05,20.09-7.21,13.66-15,13.65-22,7H1917.1Zm42.92,99.3c0,8.39-2.93,13.46-7.61,18.14l7,7c4.69-4.68,9.76-7.61,18.15-7.61h19.89c8.39,0,13.47,2.93,18.15,7.61l7-7c-4.68-4.68-7.61-9.75-7.61-18.14V52.67c0-8.39,2.93-13.46,7.61-18.14l-7-7c-4.68,4.68-9.76,7.61-18.15,7.61h-19.89c-8.39,0-13.46-2.93-18.15-7.61l-7,7c4.68,4.68,7.61,9.75,7.61,18.14Z"/><path d="M2138.13,155.09l-24.38-6.24L2094,133.63l-8.58-14.43-6.05-20.88V63.4l6.05-20.87L2094,28.09l19.71-15.21,24.38-6.05h26.14l24.39,6.05,19.7,15.21L2217,42.53l6,20.87V98.32l-6,20.88-8.59,14.43-19.7,15.22-24.39,6.24Zm-13.85-46c0,8.39-2.93,13.46-7.61,18.14l7,7c4.68-4.68,9.75-7.61,18.14-7.61h18.73c8.39,0,13.46,2.93,18.14,7.61l7-7c-4.68-4.68-7.61-9.75-7.61-18.14V52.67c0-8.39,2.93-13.46,7.61-18.14l-7-7c-4.68,4.68-9.75,7.61-18.14,7.61h-18.73c-8.39,0-13.46-2.93-18.14-7.61l-7,7c4.68,4.68,7.61,9.75,7.61,18.14Z"/><path d="M2338.68,133.83l7-7c-3.9-3.9-7.61-5.85-7.61-11.51s3.71-7.6,7.61-11.51l-7-7c-4.68,4.68-9.76,7.61-18.14,7.61h-2.93V77.06H2381v75.11h-86.22l-19.9-3.71-19.12-14.83-7.22-14.43-6.05-20.88V63.4l6.05-20.87,8.58-14.44,19.71-15.21,24.38-6.05h17.37l21.65,2.73L2356,16l12.68,10.73,9.56,14L2382,53.84l-42.33,8-1-5.85-4.88-11.32-7.61-6.43L2318,35.12h-9.75l-8.39,3.31-7,5.66-3.7,9.56-1.76,14.63v40.38c0,8.39-2.92,13.46-7.61,18.14l7,7c4.68-4.68,9.75-7.61,18.14-7.61h15.61C2328.92,126.22,2334,129.15,2338.68,133.83Z"/><path d="M2537.86,131.68h-60.08l-7,20.49h-37.06L2484.41,9.75h52.67l50.72,142.42h-42.92ZM2525,108.08l7-7c-4.68-4.68-7.61-9.75-7.61-18.14V65.74c0-8.39,2.93-13.46,7.61-18.14l-7-7c-4.3,4.29-7.81,7.61-14.44,7.61s-10-3.32-14.24-7.61l-7,7c4.68,4.68,7.6,9.75,7.6,18.14V82.91c0,8.39-2.92,13.46-7.6,18.14l7,7c4.29-4.3,7.61-7.61,14.24-7.61S2520.69,103.78,2525,108.08Z"/><path d="M2692.17,9.75h39V152.17h-39V97.54L2658,71.4c-8-6.05-14.43-17.75-18.53-26.53l-9.17,4.29c4.49,8.78,9.17,18.92,9.17,31.8v71.21h-39V9.75h40.19l33,24.78c9,6.83,15.8,20.29,18.53,26.53l9.17-4.29c-3.9-7.61-9.17-17.56-9.17-31.8Z"/><path d="M2848.83,133.83l7-7c-3.9-3.9-7.61-5.85-7.61-11.51s3.71-7.6,7.61-11.51l-7-7c-4.69,4.68-9.76,7.61-18.15,7.61h-2.92V77.06h63.4v75.11h-86.23l-19.9-3.71-19.12-14.83-7.21-14.43-6-20.88V63.4l6-20.87,8.58-14.44L2787,12.88l24.39-6.05h17.36l21.66,2.73,15.8,6.44,12.68,10.73,9.56,14,3.7,13.07-42.33,8-1-5.85L2844,44.67l-7.61-6.43-8.19-3.12h-9.76L2810,38.43l-7,5.66-3.71,9.56-1.75,14.63v40.38c0,8.39-2.93,13.46-7.61,18.14l7,7c4.68-4.68,9.76-7.61,18.15-7.61h15.6C2839.07,126.22,2844.14,129.15,2848.83,133.83Z"/><path d="M2956.51,105.34c0,8.39-2.93,13.47-7.61,18.15l7,7c4.69-4.68,9.76-7.61,18.15-7.61h56.18v29.27H2913.59V9.75h42.92Z"/><path d="M3139.3,131.68h-60.08l-7,20.49h-37.07L3085.85,9.75h52.67l50.73,142.42h-42.92Zm-12.87-23.6,7-7c-4.68-4.68-7.61-9.75-7.61-18.14V65.74c0-8.39,2.93-13.46,7.61-18.14l-7-7c-4.29,4.29-7.8,7.61-14.44,7.61s-9.95-3.32-14.24-7.61l-7,7c4.68,4.68,7.61,9.75,7.61,18.14V82.91c0,8.39-2.93,13.46-7.61,18.14l7,7c4.29-4.3,7.61-7.61,14.24-7.61S3122.14,103.78,3126.43,108.08Z"/><path d="M3193.15,152.17V122.9h23.41c8.39,0,13.46,2.93,18.14,7.61l7-7c-4.68-4.68-7.61-9.76-7.61-18.15V56.57c0-8.38,2.93-13.46,7.61-18.14l-7-7C3230,36.09,3225,39,3216.56,39h-23.41V9.75H3318V39h-23.41c-8.39,0-13.46-2.93-18.14-7.61l-7,7c4.69,4.68,7.61,9.76,7.61,18.14v48.77c0,8.39-2.92,13.47-7.61,18.15l7,7c4.68-4.68,9.75-7.61,18.14-7.61H3318v29.27Z"/><path d="M3386.09,155.09l-23.8-5.46-19.9-9-13.07-14.44-5.47-14.44,37.85-10.73,4.49,10.73,4.87,7.22,8.59,4.88,10.53,2.34h13.46l10-2.34,6-5.27v-7l-5.66-6.25-9-3.7-44.09-10-18.73-11.32-9.36-18.92v-22L3342.19,23l14-10.14,23.6-6.05h28.29l23.21,5.27,16.2,9.94,10.53,15.42-36.28,14.43-5.66-8.78L3408.52,38l-10.14-2.92h-13.27l-9.17,2.34-5.66,5.07v6.24l5.08,5.85,10.92,4.1,43.5,9.75,21.07,12.69,10.73,19.11v24.39l-11.31,15.22-18.34,10.33-23.8,4.88Z"/><path d="M3599.9,33.16l-5.46-3.7-8.2-2.15h-8.58l-8,2.34-5.85,4.88-3.12,5.07v6.83h-39.6V37.07l3.9-13.86,9.36-11.31,14.44-8L3572,0h20.68l22.83,4.68,14.43,7,9.17,12.09,4.1,11.32V48.19l-4.1,11.51-9,11.31-14.63,10.73-17.17,5.66-.78,16.77h-31.21l-1.18-34.72,17.56-3.71,15.61-7,5.27-10.14V38.43Z"/><path d="M3608.68,122.55l-7-7c-4.69,4.68-9.76,7.61-18.15,7.61h-3.9c-8.39,0-13.46-2.93-18.14-7.61l-7,7c3.9,3.91,7.6,6.64,7.6,12.29s-3.7,8.39-7.6,12.29l7,7c4.68-4.69,9.75-7.61,18.14-7.61h3.9c8.39,0,13.46,2.92,18.15,7.61l7-7c-3.9-3.9-7.61-6.63-7.61-12.29S3604.78,126.46,3608.68,122.55Z"/><path d="M641.93,86.23l-7-7c-4.69,4.69-9.76,7.61-18.15,7.61h-3.9c-8.39,0-13.46-2.92-18.14-7.61l-7,7c3.9,3.9,7.6,6.63,7.6,12.29s-3.7,8.39-7.6,12.29l7,7c4.68-4.68,9.75-7.61,18.14-7.61h3.9c8.39,0,13.46,2.93,18.15,7.61l7-7c-3.9-3.9-7.61-6.63-7.61-12.29S638,90.13,641.93,86.23Z"/></g></g></svg>