<svg xmlns="http://www.w3.org/2000/svg" viewBox="0 0 3682.52 361.32"><g id="Layer_2" data-name="Layer 2"><g id="Layer_1-2" data-name="Layer 1"><path d="M0,58.85H270.68v63.37H98V152.3H210.53v58H98v30.08H270.68v63.37H0Z"/><path d="M422.56,127.59H333V58.85H610.1v68.74H520.52V303.75h-98Z"/><path d="M826.21,224.26H785.4v79.49h-98V58.85H908.49c38.67,0,66.81,25.77,66.81,61.44v42.53c0,30.29-20.19,53.28-49.84,59.72l61,81.21H879.06ZM785.4,162H861c12.46,0,19.55-5.58,19.55-15.46v-5.59c0-9.88-7.09-15.47-19.55-15.47H785.4Z"/><path d="M1063.81,58.85h270.68v63.37H1161.77V152.3h112.57v58H1161.77v30.08h172.72v63.37H1063.81Z"/><path d="M1577.23,58.85h266.39v68.74H1675.19v33.94h110.43v60.16H1675.19v82.06h-98Z"/><path d="M1925.25,58.85h98V235h168.43v68.75H1925.25Z"/><path d="M2463,262.93H2360.7l-14.61,40.82h-96.46l96-244.9H2478l96,244.9h-96.46Zm-21.49-60.15-29.86-83.35L2382,202.78Z"/><path d="M2634.17,257.78V105.25c0-26.86,22.55-46.4,53.49-46.4h180.46c31.36,0,53.92,19.54,53.92,46.4V257.78c0,26.63-22.56,46-53.92,46H2687.66C2656.72,303.75,2634.17,284.41,2634.17,257.78Zm171.65-21.92c11.81,0,20.4-7.52,20.4-18V145.21c0-10.75-8.59-18.48-20.4-18.48H2750c-11.6,0-20,7.73-20,18.48v72.61c0,10.52,8.38,18,20,18Zm-34.16,98H2922v27.49H2771.66Z"/><path d="M3019.78,257.78V58.85h95.81v159c0,10.52,8.38,18,20,18h55.86c11.81,0,20.41-7.52,20.41-18v-159h95.81V257.78c0,26.63-22.56,46-53.92,46H3073.27C3042.34,303.75,3019.78,284.41,3019.78,257.78Z"/><path d="M3411.84,58.85h270.68v63.37H3509.8V152.3h112.57v58H3509.8v30.08h172.72v63.37H3411.84Z"/><rect x="50" width="150.38" height="27.5"/></g></g></svg>