<?xml version="1.0" encoding="utf-8"?>
<!-- Generator: Adobe Illustrator 25.2.1, SVG Export Plug-In . SVG Version: 6.00 Build 0)  -->
<svg version="1.1" id="Layer_1" xmlns="http://www.w3.org/2000/svg" xmlns:xlink="http://www.w3.org/1999/xlink" x="0px" y="0px"
	 viewBox="0 0 88.2 74" style="enable-background:new 0 0 88.2 74;" xml:space="preserve">
<path d="M71.4-34.9c0-0.2-0.5-1-1.2-1h-2.3c-0.7,0-1.5-1,0-2.2v-2.6c0-0.1,0-0.2-0.1-0.2h0h0c0,0,0,0,0,0c0,0,0,0,0-0.1c0,0,0,0,0,0
	c-0.1-0.1-0.1-0.1-0.2-0.2c0,0,0,0,0,0c0,0,0,0-0.1,0c0,0,0,0,0,0c0,0,0,0-0.1,0c0,0,0,0,0,0c0,0,0,0-0.1,0c0,0,0,0-0.1,0
	c0,0,0,0,0,0c-0.2,0-0.4,0-0.7,0H23.4c-0.2,0-0.5,0-0.7,0c0,0,0,0,0,0c0,0,0,0,0,0c0,0,0,0-0.1,0c0,0,0,0,0,0c0,0,0,0-0.1,0
	c0,0,0,0,0,0c-0.2,0.1-0.4,0.2-0.4,0.5v2.6c1.5,1.2,0.7,2.2,0,2.2h-2.3c-0.7,0-1.2,0.8-1.2,1v13.5c0,0.2,0.5,1,1.2,1h2.3
	c0.7,0,1.5,1,0,2.2v2.6c0,0.1,0,0.2,0.1,0.2h0c0,0,0,0,0,0c0,0,0,0,0,0c0,0,0,0,0,0c0,0,0,0,0,0c0,0,0,0,0,0c0,0,0.1,0.1,0.1,0.1
	c0,0,0,0,0,0c0,0,0,0,0.1,0c0,0,0,0,0,0c0,0,0,0,0.1,0c0,0,0,0,0,0c0.2,0.1,0.5,0.1,0.8,0.1h43.1c0.6,0,1.3,0,1.3-0.6v-2.6
	c-1.5-1.2-0.7-2.2,0-2.2h2.3c0.7,0,1.2-0.8,1.2-1L71.4-34.9L71.4-34.9z M67.2-28.1C67.2-28.1,67.2-28.1,67.2-28.1
	c0,0.9-0.2,2.2-0.2,2.5c-0.1,0.3-0.1,1.2-0.7,1.3c-1,0.1-1-0.9-1-1.2c-0.1-0.3-0.1-1.4-0.6-1.4c-0.6,0-1,0.2-1.3,0.5l-1.5,1.6
	c-0.2,0.2-0.5,0.4-1,0.5c-0.5,0-0.7-0.2-1.1-0.5l-1.4-1.5c-0.3-0.4-0.7-0.6-1.1-0.6c-0.9,0-1,0.8-1,1.3c-0.1,0.7-0.2,1.3-0.7,1.3
	c-0.6,0-1-0.3-1-1.4c-0.1-1.3-0.6-1.2-0.9-1.2h-4.8H48c0,0,0,0,0,0c0,0-0.1,0-0.1,0c0,0,0,0-0.1,0.1c-0.5,1-1.6,1.7-2.8,1.7
	c-0.9,0-1.7-0.4-2.3-1c-0.1-0.2-0.3-0.3-0.4-0.5c0-0.1-0.1-0.1-0.1-0.2c0,0,0-0.1-0.1-0.1c0,0,0,0-0.1,0c0,0,0,0,0,0h-0.7h-4.8
	c-0.3,0-0.8-0.1-0.9,1.2c-0.1,1.1-0.4,1.4-1,1.4c-0.5,0-0.6-0.5-0.7-1.3c-0.1-0.5-0.1-1.3-1-1.3c-0.4,0-0.7,0.2-1.1,0.6l-1.4,1.5
	c-0.4,0.3-0.6,0.5-1.1,0.5c-0.5,0-0.8-0.2-1-0.5l-1.5-1.6c-0.3-0.3-0.7-0.5-1.3-0.5c-0.6,0-0.6,1.1-0.6,1.4c0,0.3-0.1,1.2-1,1.2
	c-0.7,0-0.7-0.9-0.7-1.3c-0.1-0.4-0.2-1.6-0.2-2.5c0,0,0,0,0,0c0,0,0-0.1,0-0.1c0,0,0-0.1,0-0.1c0,0,0,0,0,0c0-0.8,0.2-2.1,0.2-2.5
	c0.1-0.3,0.1-1.2,0.7-1.3c1-0.1,1,0.9,1,1.2c0.1,0.3,0.1,1.4,0.6,1.4c0.6,0,1-0.2,1.3-0.5l1.5-1.6c0.2-0.2,0.5-0.4,1-0.5
	c0.5,0,0.7,0.2,1.1,0.5l1.4,1.5c0.3,0.4,0.7,0.6,1.1,0.6c0.9,0,1-0.8,1-1.3c0.1-0.7,0.2-1.3,0.7-1.3c0.6,0,1,0.3,1,1.4
	c0.1,1.3,0.6,1.2,0.9,1.2h4.8h0.7c0,0,0,0,0,0c0,0,0.1,0,0.1,0c0,0,0,0,0.1-0.1c0-0.1,0.1-0.1,0.1-0.2c0.1-0.2,0.2-0.3,0.4-0.5
	c0.4-0.4,0.9-0.7,1.4-0.9c0,0,0,0,0,0c0.1,0,0.1,0,0.2-0.1c0,0,0,0,0,0c0.1,0,0.3-0.1,0.4-0.1c0,0,0,0,0,0c0.1,0,0.1,0,0.2,0
	c0.1,0,0.3,0,0.4,0c0,0,0,0,0,0c0.2,0,0.4,0.1,0.6,0.2c0,0,0,0,0,0c0.3,0.1,0.5,0.2,0.7,0.4c0,0,0,0,0,0c0.1,0,0.1,0.1,0.2,0.1
	c0,0,0,0,0,0c0.1,0,0.1,0.1,0.2,0.1c0,0,0,0,0,0c0.3,0.2,0.5,0.5,0.6,0.8c0,0,0,0.1,0.1,0.1c0,0,0,0,0.1,0h0h0.7h4.8
	c0.3,0,0.8,0.1,0.9-1.2c0.1-1.1,0.4-1.4,1-1.4c0.5,0,0.6,0.5,0.7,1.3c0.1,0.5,0.1,1.3,1,1.3c0.4,0,0.7-0.2,1.1-0.6l1.4-1.5
	c0.4-0.3,0.6-0.5,1.1-0.5c0.5,0,0.8,0.2,1,0.5l1.5,1.6c0.3,0.3,0.7,0.5,1.3,0.5c0.6,0,0.6-1.1,0.6-1.4c0-0.3,0.1-1.2,1-1.2
	c0.7,0,0.7,0.9,0.7,1.3c0.1,0.4,0.2,1.6,0.2,2.5c0,0,0,0,0,0l0,0c0,0,0,0.1,0,0.1C67.2-28.2,67.2-28.1,67.2-28.1z"/>
<path d="M68.1-92l-22.3-18c-0.5-0.4-1.1-0.4-1.6,0L21.9-92c-0.4,0.3-0.6,0.9-0.4,1.4c0.2,0.5,0.7,0.9,1.2,0.9h3.8v24.3H24
	c-0.7,0-1.3,0.6-1.3,1.3v3.7c0,0.7,0.6,1.3,1.3,1.3h42.1c0.7,0,1.3-0.6,1.3-1.3v-3.7c0-0.7-0.6-1.3-1.3-1.3h-2.5v-24.3h3.7
	c0.5,0,1-0.3,1.2-0.9C68.7-91,68.5-91.6,68.1-92z M37.8-95.2c0-1.1,0.9-2,2-2c1.1,0,2,0.9,2,2c0,0,0,0.1,0,0.1h6.2c0,0,0,0,0-0.1
	c0-1.1,0.9-2,2-2c1.1,0,2,0.9,2,2c0,0.6-0.3,1.1-0.7,1.5c0.4,0.4,0.7,0.9,0.7,1.5c0,1.1-0.9,2-2,2c-1.1,0-2-0.9-2-2c0,0,0-0.1,0-0.1
	h-6.2c0,0,0,0,0,0.1c0,1.1-0.9,2-2,2c-1.1,0-2-0.9-2-2c0-0.6,0.3-1.1,0.7-1.5C38.1-94.1,37.8-94.6,37.8-95.2z M52-77.4v12.1h-14
	v-12.1c0-4.1,3.1-7.5,7-7.5C48.9-84.9,52-81.6,52-77.4z M34.9-61.6h-9.6v-1.1h9.6V-61.6z M52.6-61.6H37.5v-1.1h15.1V-61.6z
	 M64.8-62.8v1.1h-9.6v-1.1H64.8z"/>
<g>
	<path d="M30.3-152.7c0.2-0.3-1.2-0.6-2.6-0.4c-1.5,0.3-3.2,1.1-3.4,3.3c-0.1,1.8,0.3,3.7,1.3,5c0.6,0.8,1.3,1.4,2,1.8
		c1.7,1,3.4,1.1,3.4,1.1C29.6-146.4,29.6-151.5,30.3-152.7z"/>
	<path d="M56.9-135.6L56.9-135.6C56.9-135.6,56.9-135.6,56.9-135.6c-1.4-0.2-2.3-0.3-2.3-0.3s4.9-12.7-0.4-17.4
		c-2.1-1.9-5-2.5-6.9-2.7c-1.2-0.1-2-0.1-2.3,0c-0.3,0-1.1-0.1-2.3,0c-2,0.2-4.8,0.8-6.9,2.7c-5.3,4.7-0.4,17.4-0.4,17.4
		s-0.9,0.1-2.3,0.3c-4,0.7-10.8,2.7-10.8,7.3c0,0.9,0.4,1.7,1.3,2.6c3.5,3.4,12.8,5.9,21.2,5.6h0.3c8.4,0.2,17.7-2.3,21.2-5.6
		c0.9-0.9,1.3-1.7,1.3-2.6C67.7-132.9,61-134.8,56.9-135.6z M47.3-145.5C47.3-145.6,47.3-145.6,47.3-145.5c0.5-1.7,1.7-2.8,2.7-2.5
		c1.1,0.3,1.5,2,1.1,3.7c-0.5,1.7-1.7,2.8-2.8,2.5c-0.5-0.1-0.8-0.6-1.1-1.2C47.1-143.7,47-144.6,47.3-145.5z M47.3-136.9
		c0.5,0,1,0.4,1,0.8c0,0.4-0.4,0.8-1,0.8c-0.5,0-1-0.4-1-0.8C46.3-136.6,46.8-136.9,47.3-136.9z M43.7-136.1c0,0.4-0.4,0.8-1,0.8
		c-0.5,0-1-0.4-1-0.8c0-0.5,0.4-0.8,1-0.8C43.3-136.9,43.7-136.6,43.7-136.1z M40-148c1-0.3,2.3,0.8,2.7,2.5c0,0,0,0,0,0.1
		c0.3,0.9,0.2,1.8,0,2.5c-0.2,0.6-0.6,1-1.1,1.2c-1.1,0.3-2.3-0.8-2.7-2.5C38.5-146.1,39-147.7,40-148z M65.2-127.8
		c-2.5,1.1-9.6,3.8-20.1,3.8c-10.6,0-17.6-2.7-20.2-3.8c-0.1,0-0.1-0.1-0.1-0.2c0-0.1,0.1-0.2,0.2-0.2c3-0.8,11.6-2.8,20.1-2.8
		c8.5,0,17.1,2.1,20.1,2.8c0.1,0,0.2,0.1,0.2,0.2C65.3-127.9,65.3-127.8,65.2-127.8z"/>
	<path d="M62.5-143c0.7-0.4,1.4-1,2-1.8c1-1.4,1.5-3.2,1.4-5c-0.2-2.2-1.8-3.1-3.4-3.3c-1.5-0.2-2.8,0.1-2.6,0.4
		c0.6,1.2,0.7,6.3-0.7,10.8C59.1-141.9,60.8-142,62.5-143z"/>
	<path d="M59.4-137.6c0.1-0.2,0.1-0.4,0.2-0.6c1.2-0.2,2.4-0.7,3.6-1.3c3.6-1.9,6-5.1,6.4-8.4v0c0,0,0,0,0,0l0.1-1.1
		c0-0.3,0-0.7-0.1-1.1c-0.1-1.1-0.4-2.1-0.9-3.1c-1-2.2-3.2-3.5-6.3-3.5c-1,0-2,0.1-2.9,0.4c-3.2-4.1-8.9-5.3-12.1-5.6
		c-1.7-0.2-3.2-0.2-4.9,0c-3.2,0.3-8.8,1.5-12.1,5.6c-0.9-0.2-2-0.4-2.9-0.4c-3.1,0-5.3,1.3-6.3,3.5c-0.5,1.1-0.8,2.1-0.9,3.2
		c-0.1,1-0.1,1.4,0,2.2c0.3,4,3.5,7,6.4,8.5c1.2,0.6,2.4,1.1,3.6,1.3c0.1,0.2,0.1,0.4,0.2,0.6c-6.9,1.7-10.7,5-10.7,9.3
		c0,1.5,0.7,3,2.1,4.3c3.8,3.7,13,6.4,21.8,6.4c0.4,0,0.7,0,1.1,0l0.2,0c9.1,0.3,19-2.5,22.9-6.3c1.4-1.3,2.1-2.8,2.1-4.3
		C70.1-132.6,66.3-135.9,59.4-137.6z M66.9-125.1c-3.6,3.5-13.2,6.1-21.8,5.9h-0.3c-0.4,0-0.7,0-1.1,0c-8.3,0-17.2-2.5-20.7-5.9
		c-1-1-1.6-2.1-1.6-3.2c0-5.2,7-7.3,11.3-8.1c-0.4-1-0.9-2.4-1.2-3.2c-1.3-0.1-2.7-0.5-4-1.3c-2.7-1.4-5.3-4.1-5.6-7.2
		c-0.1-0.7-0.1-1,0-1.9c0.1-0.9,0.3-1.7,0.8-2.7c0.9-2,2.9-2.5,4.8-2.5c1.6,0,3,0.4,3.5,0.7c2.3-3.7,7-5.5,11.6-5.9
		c0.8-0.1,1.5-0.1,2.3-0.1c0.7,0,1.5,0,2.3,0.1c4.6,0.4,9.4,2.2,11.6,5.9c0.5-0.3,2-0.7,3.5-0.7c1.9,0,4,0.6,4.8,2.5
		c0.4,0.9,0.6,1.7,0.8,2.7c0.1,1,0,1.9,0,1.9c-0.4,3.3-2.9,5.8-5.6,7.2c-1.4,0.7-2.8,1.1-4,1.3c-0.3,0.8-0.8,2.2-1.2,3.2
		c4.3,0.8,11.3,2.9,11.3,8.1C68.5-127.2,68-126.1,66.9-125.1z"/>
</g>
<path d="M44.8-4.4c-4.2,0-8.3,1.3-11.9,3.8C34,0.7,35.2,2,36.3,3.3c1.4-1,2.8-1.6,4.3-1.9l0.9-0.9L42-0.1l0.6,0.6l0.7,0.7
	c6.9,0.5,12.3,8.3,8.9,15.4l10.4,10.4c4.8-7.9,3.7-18.4-3.1-25.2C55.4-2.4,50.1-4.4,44.8-4.4L44.8-4.4z M28.2-3.7L25-0.5
	C28.3,2.1,32,5.3,35,8l0.6,0.6l-0.6,0.6l-4.1,4.1l1.7,1.7l3-3l23.5,23.5l6.8,1.7L64,30.6l-2.4-2.4l0,0L51.3,18l0,0L40.5,7.2l3.2-3.2
	L42,2.2L38,6.3l-0.6,0.6l-0.6-0.6C34.1,3.2,30.8-0.4,28.2-3.7L28.2-3.7z M28.1,4.2c-5.9,8.1-5.1,19.4,2.1,26.7
	c4.6,4.6,10.9,6.6,16.9,5.9c-11.5,0.1-21.6-11.2-18.1-23l-0.4-0.4l0.6-0.6l0.3-0.3c0.6-1.6,1.5-3.2,2.7-4.8
	C30.8,6.5,29.5,5.3,28.1,4.2L28.1,4.2z M38.6,8.2c1.1,0,1.9,0.9,1.9,1.9c0,0.2,0,0.4-0.1,0.6l20.7,20.7L60,32.6L39.4,11.9
	c-0.2,0.1-0.5,0.2-0.8,0.2c-1.1,0-1.9-0.9-1.9-1.9C36.7,9.1,37.5,8.2,38.6,8.2L38.6,8.2z"/>
<g>
	<path d="M64.8-194.2c3.4,1.6,5.4,3.6,5.4,5.8c0,5.1-10.7,9.3-23.9,9.3c-13.2,0-23.9-4.1-23.9-9.3c0-2.2,2.1-4.2,5.4-5.8
		c-6.4,2.1-10.5,5.2-10.5,8.7c0,6.2,13,11.3,29,11.3c16,0,29-5.1,29-11.3C75.3-189,71.2-192.1,64.8-194.2z"/>
	<path d="M46.1-187.5c5.5,0,10.3-4.2,12.8-10.5c-0.8,0.9-1.6,1.4-2.2,1.4c-2,0.2-2.8-3.7-2.5-9.7c-0.8,1.7-1.8,2.8-2.7,2.8
		c-2.8,0-5.2-7.9-5.7-18.4l0,0c-0.5,10.5-2.9,18.4-5.7,18.4c-0.7,0-1.4-0.5-2-1.4c0.2,5.2-0.6,8.5-2.5,8.4c-0.7-0.1-1.4-0.5-2.2-1.4
		C35.8-191.7,40.5-187.5,46.1-187.5z M46-201.6L46-201.6c2.5,0,4.6,2.1,4.6,4.6c0,1.3-0.5,2.5-1.4,3.3c0.3-0.5,0.5-1,0.5-1.6
		c0-1.5-1.2-2.7-2.7-2.7l0,0c-1.5,0-2.7,1.2-2.7,2.7c0,1.5,1.2,2.7,2.7,2.7c0.2,0,0.3,0,0.5,0c-0.5,0.2-1,0.3-1.5,0.3
		c-2.5,0-4.6-2.1-4.6-4.6C41.4-199.6,43.5-201.6,46-201.6z"/>
	<path d="M46.3-181.7c8.7,0,15.7-2.8,15.7-6.1c0-1.9-2.3-3.5-5.8-4.6c1.8,0.9,3,1.9,3,3.1c0,2.8-5.8,5-13,5s-13-2.3-13-5
		c0-1.2,1.2-2.2,3-3.1l0,0c-3.5,1.1-5.8,2.7-5.8,4.6C30.6-184.5,37.7-181.7,46.3-181.7z"/>
</g>
</svg>
