<svg xmlns="http://www.w3.org/2000/svg" viewBox="0 0 2692.17 293.88"><g id="Layer_2" data-name="Layer 2"><g id="Layer_1-2" data-name="Layer 1"><path d="M17.19,293.88Q6,293.88,3,291.3T0,276.7V170.57c0-4.29.64-7.52,1.93-9.66a10.49,10.49,0,0,1,5.16-4.52,27.75,27.75,0,0,1,7.52-1.72q4.29-.42,8.59-1.28,7.74-1.29,9-5.8a38.5,38.5,0,0,0,1.29-10.53V17.19q0-8.16,3.23-12.68T48.55,0q8.6,0,11.39,4.94a24.63,24.63,0,0,1,2.79,12.25V276.7q0,12-3,14.6t-14.18,2.58Z"/><path d="M185.61,293.88q-11.19,0-14.18-2.58t-3-14.6V46q0-10.72-3-13.75t-14.18-3H119.87q-7.74,0-12.46-3.23t-4.73-11.38q0-8.16,4.73-11.39T119.87,0H279.7c5.16,0,9.3,1.07,12.46,3.22s4.73,5.95,4.73,11.39-1.58,9.24-4.73,11.38-7.3,3.23-12.46,3.23H248.33q-11.18,0-14.17,3t-3,13.75V276.7q0,12-3,14.6T214,293.88Z"/><path d="M472.61,293.88q-9.89,0-13.53-3.65t-3.65-13.53V17.19q0-9.89,3.65-13.54T472.61,0H599.79q9.88,0,13.53,3.65c2.43,2.44,3.66,7,3.66,13.54v97.1c0,1.72.06,3.51.21,5.37a12.32,12.32,0,0,0,1.72,5.37,14.18,14.18,0,0,0,4.94,4.73,24.44,24.44,0,0,0,9.45,3q7.74,1.29,9.88,5.16t2.15,14.61V276.7q0,9.89-3.65,13.53t-13.53,3.65Zm45.55-180.45q0,11.17,3,14.18t14.18,3h35.23q11.17,0,14.18-3t3-14.18v-67q0-11.16-3-14.18t-14.18-3H535.34q-11.18,0-14.18,3t-3,14.18Zm0,134q0,11.18,3,14.18t14.18,3h63.59q10.74,0,14-3t3.23-14.18V177q0-11.18-3.23-14.18t-14-3H535.34q-11.18,0-14.18,3t-3,14.18Z"/><path d="M704.19,293.88q-9.88,0-13.53-3.65T687,276.7V17.19q0-9.45,3.87-13.32T704.19,0H858.44Q868.33,0,872,3.65c2.43,2.44,3.66,7,3.66,13.54V276.7c0,6.59-1.23,11.1-3.66,13.53s-6.94,3.65-13.53,3.65Zm12-46.4q0,11.18,3,14.18t14.18,3h62.3q11.17,0,14.18-3t3-14.18V136.2q0-9,3.43-12t11.17-3h7.74q8.6,0,9.88-5.58a59.91,59.91,0,0,0,1.29-13.32V46.4q0-11.16-3-14.18t-14.18-3H733.41q-11.17,0-14.18,3t-3,14.18Z"/><path d="M980.89,293.88q-11.17,0-14.39-2.58t-3.23-14.6V184.75a106.16,106.16,0,0,0-.85-14.61q-.87-6-6.88-12.89l-31.36-25.78a23.19,23.19,0,0,1-7.09-10.31q-2.37-6.43-2.37-17.61V17.19a23.75,23.75,0,0,1,3-11.82q3-5.37,11.6-5.37t11.6,5.37a23.86,23.86,0,0,1,3,11.82V92.81q0,9.89,1.72,14.6t7.73,9.46l25.78,19.76q3.87,3,8.16,5.8a16.22,16.22,0,0,0,9,2.79,20.77,20.77,0,0,0,9.66-2.58,42.87,42.87,0,0,0,8.81-6l24.06-19.76q6-4.73,7.74-9.46t1.72-14.6V17.19a23.85,23.85,0,0,1,3-11.82Q1054.35,0,1063,0t11.6,5.37a23.86,23.86,0,0,1,3,11.82v86.36q0,11.17-2.36,17.61a23.35,23.35,0,0,1-7.09,10.31l-31.36,25.78q-8.18,6.88-9.46,12.89a70.9,70.9,0,0,0-1.29,14.61V276.7q0,12-3,14.6t-14.18,2.58Z"/><path d="M1258.44,293.88q-9.89,0-13.53-3.86t-3.66-13.75V210.53q0-12,3-14.61t14.18-2.58h28.36q11.16,0,14.18,2.58t3,14.61v36.95q0,11.18,3,14.18t14.18,3h35.23q11.17,0,14.18-3t3-14.18V173.15q0-11.16-3-14.18t-14.18-3h-98q-9.89,0-13.53-3.65t-3.66-13.53V17.19q0-9.89,3.66-13.54T1258.44,0h127.18q9.87,0,13.53,3.65t3.65,13.54V71.75a24.86,24.86,0,0,1-2.79,12q-2.8,5.16-11.39,5.16-9.45,0-12.24-5.16a24.74,24.74,0,0,1-2.79-12V46.4q0-11.16-3-14.18t-14.18-3h-68.74q-11.17,0-14.18,3t-3,14.18v63.16q0,11.18,3,14.18t14.18,3h98q9.87,0,13.53,3.65t3.65,13.53V276.27q0,9.89-3.86,13.75t-15.47,3.86Z"/><path d="M1463.81,293.88q-9.88,0-13.54-4.72t-3.65-14.61V17.19q0-9.89,3.65-13.54T1463.81,0h119.87q7.3,0,12,3.44t4.73,11.17q0,7.73-4.73,11.17t-12,3.44H1493q-11.18,0-14.17,3t-3,14.18v65.31q0,11.17,3,14.18t14.17,3h90.66q7.3,0,12,3.22t4.73,10.52q0,8.18-4.73,11.82t-12,3.65h-57.14q-11.18,0-14.18,3t-3,14.18v72.18q0,11.18,3,14.18t14.18,3h57.14q7.3,0,12,3.43t4.73,10.74q0,8.18-4.73,11.61t-12,3.43Z"/><path d="M1655.86,293.88q-11.17,0-14.18-2.58t-3-14.6V17.19q0-9.89,3.65-13.54T1655.86,0h143.93q9.89,0,13.54,3.65c2.42,2.44,3.65,7,3.65,13.54V140.5c0,6.59-1.23,11.1-3.65,13.53s-6.95,3.65-13.54,3.65h-81.2q-11.19,0-14.18,3t-3,14.18V276.7q0,12-3,14.6t-14.18,2.58Zm12-182.6q0,11.18,3,14.18t14.17,3h85.5q11.17,0,14.18-3t3-14.18V46.4q0-11.16-3-14.18t-14.18-3h-85.5q-11.17,0-14.17,3t-3,14.18Z"/><path d="M1878.85,293.88q-11.19,0-14.18-2.58t-3-14.6V17.19q0-9.89,3.65-13.54T1878.85,0h143.93q9.88,0,13.53,3.65T2040,17.19V140.5q0,9.88-3.65,13.53t-13.53,3.65h-81.2q-11.19,0-14.18,3t-3,14.18V276.7q0,12-3,14.6t-14.18,2.58Zm12-182.6q0,11.18,3,14.18t14.18,3h85.5q11.18,0,14.18-3t3-14.18V46.4q0-11.16-3-14.18t-14.18-3h-85.5q-11.18,0-14.18,3t-3,14.18Z"/><path d="M2101.41,293.88q-9.9,0-13.54-3.65t-3.65-13.53V17.19a22.55,22.55,0,0,1,3.22-11.82Q2090.67,0,2098.83,0t11.38,5.37a22.56,22.56,0,0,1,3.23,11.82V247.48q0,11.18,3,14.18t14.18,3h36.09q11.17,0,14.18-3t3-14.18V17.19q0-12,3-14.61T2201.08,0h28.36q11.17,0,14.18,2.58t3,14.61V276.7q0,9.89-3.65,13.53t-13.54,3.65Z"/><path d="M2307.2,293.88q-11.17,0-14.18-2.58t-3-14.6V17.19a27.49,27.49,0,0,1,2.57-11.6Q2295.17,0,2305.05,0q8.6,0,11.39,5.59a25.64,25.64,0,0,1,2.79,11.6V116a16.9,16.9,0,0,0,1.51,6.87,5.08,5.08,0,0,0,4.94,3.44,6.74,6.74,0,0,0,5.15-2.36c1.43-1.58,2.86-3.08,4.3-4.52L2446.41,9.88q6-6,9.67-8A15.06,15.06,0,0,1,2463.17,0h14.18a10.73,10.73,0,0,1,6.23,1.93,6.6,6.6,0,0,1,2.79,5.8,14.81,14.81,0,0,1-3.44,9.46,126.62,126.62,0,0,1-11.17,11.6l-88.51,85.93q-2.16,2.15-4.72,4.29a7,7,0,0,0-2.58,5.59c0,2.3,1.57,3.65,4.72,4.08a64.16,64.16,0,0,0,8.6.65h79.05q11.17,0,14.18,3t3,14.18V276.7q0,12-3,14.6t-14.18,2.58H2440q-11.19,0-14.18-2.58t-3-14.6v-101q0-11.17-3-14.18t-14.18-3h-35.66q-11.17,0-14.18,3t-3,14.18v101q0,12-3,14.6t-14.18,2.58Z"/><path d="M2547,293.88q-9.88,0-13.53-3.65t-3.66-13.53V17.19A22.56,22.56,0,0,1,2533,5.37Q2536.2,0,2544.37,0t11.39,5.37A22.55,22.55,0,0,1,2559,17.19V247.48q0,11.18,3,14.18t14.18,3h36.09q11.16,0,14.18-3t3-14.18V17.19q0-12,3-14.61T2646.63,0H2675q11.16,0,14.18,2.58t3,14.61V276.7q0,9.89-3.65,13.53T2675,293.88Z"/></g></g></svg>