<svg xmlns="http://www.w3.org/2000/svg" viewBox="0 0 3556.14 204.16"><g id="Layer_2" data-name="Layer 2"><g id="Layer_1-2" data-name="Layer 1"><path d="M138,138v-2.76h-2.76v-2.76H52.42v2.76H49.66v5.52H46.9v5.51H44.14v8.28H41.38V160H38.63v8.28H35.87v13.79h2.76v5.52h5.51v2.76h11v8.27H0v-8.27H5.52v-2.76H8.28v-2.76h5.51v-2.76h2.76v-5.52h2.76v-2.76h2.76V168.3h2.76V160h2.76V154.5h2.76V149h2.76v-8.27h2.76v-5.52h2.76v-8.28h2.75v-5.52h2.76v-5.51H46.9v-5.52h2.76v-8.28h2.76V96.56h2.76V91h2.76V82.77H60.7V77.25h2.76V71.73h2.75V63.46H69V57.94h2.76V52.42h2.76V44.14h2.76V38.62H80V33.11h2.76V24.83h2.76V19.31h2.76V13.79h2.76V5.52H93.8V0h5.52V5.52h2.76V11h2.76v5.51h2.76v8.28h2.76v5.52h2.76v5.52h2.76v8.27h2.75v5.52h2.76v5.52h2.76v8.28h2.76V69h2.76v5.52h2.76v8.28h2.76v5.52H138V93.8h2.76v8.28h2.76v5.52h2.75v8.28H149v5.51h2.76v5.52h2.76v5.52h2.76v8.28H160v5.51h2.76v5.52h2.76V160h2.76v5.52h2.75v8.27h2.76v2.76h2.76v5.52h2.76v2.76h2.76v2.76h5.52v2.76h8.27v8.27H124.15v-8.27h11v-2.76h5.52v-5.52h2.76v-5.52h-2.76V168.3H138v-5.52h-2.76V154.5h-2.76V149h-2.76v-8.27h-2.76V138Zm-16.56-13.8v-2.76h-2.76v-8.27h-2.75V107.6h-2.76v-5.52h-2.76V93.8H107.6V88.29h-2.76V82.77h-2.76V74.49H99.32V69H96.56V60.7H93.8V55.18H91.05V49.66H85.53v5.52H82.77V60.7H80V69H77.25v5.52H74.49v8.28H71.73v5.52H69V93.8H66.21v8.28H63.46v5.52H60.7v8.28H57.94v5.51H55.18v2.76Z"/><path d="M237.26,168.3H240v5.51h2.76v5.52h5.52v2.76h5.52v2.76h13.79v-2.76h8.28v-2.76h5.52v-2.76h2.75v-2.76h2.76v-2.76h2.76V168.3h2.76V91h-2.76V88.29h-2.76V85.53h-5.51V82.77h-5.52V80h-5.52V77.25h8.28V74.49h11V71.73h11V69h11V66.21h5.52V179.33H320v5.52h5.52v2.76h5.52v2.76h5.51v2.76h-2.75v2.75H314.51v2.76H295.2v2.76h-2.76V182.09h2.76v-2.76H298v-2.76h2.76V168.3H298v2.75H295.2v2.76h-2.76v5.52h-2.76v2.76h-2.76v2.76h-2.76v2.76h-2.75v2.76h-5.52v2.76h-2.76v2.75h-5.52v2.76h-8.28v2.76H237.26v-2.76H229v-2.76h-2.76v-2.75h-2.76v-2.76h-2.76v-2.76H218v-2.76h-2.76v-5.52h-2.76v-80h-2.76v-11h-5.52V85.53H201.4V82.77h-8.28V80h-2.76V77.25h8.28V74.49h11V71.73h11V69h11V66.21h5.52Z"/><path d="M449.69,104.84v11h-93.8v-11Z"/><path d="M538,201.4H515.9v-2.76h-11v-2.76h-5.52v-2.75h-2.76v-2.76h-2.76v-2.76h-2.76v-2.76h-2.76v-2.76h-2.76v-2.76h-2.76v-5.52H480V168.3h-2.76v-5.52h-2.76V149h-2.76V129.67h2.76V115.88h2.76V107.6H480v-5.52h2.75V96.56h2.76V93.8h2.76V88.29h2.76V85.53h2.76V82.77h2.76V80h2.76V77.25h5.52V74.49h5.51V71.73h5.52V69h8.28V66.21h30.35V69h11v2.76h2.76V22.07h-2.76V19.31H562.8V16.55h-5.51V13.79h-5.52V11h-5.52V8.28h11V5.52h13.79V2.76h11V0h11V179.33h2.76v5.52h5.52v2.76H607v2.76h5.52v2.76h-2.76v2.75H590.39v2.76H571.08v2.76h-2.76V182.09h2.76v-5.52h2.76v-2.76h2.76v-8.27h-2.76v2.76h-2.76v5.51h-2.76v2.76h-2.76v2.76H562.8v5.52h-2.75v2.76h-2.76v2.76h-5.52v2.76H549v2.75h-5.52v2.76H538Zm5.52-16.55v-2.76H549v-2.76h5.52v-2.76h5.52v-2.76h2.75v-2.76h2.76V168.3h2.76v-80h-2.76V85.53H562.8V82.77h-5.51V80H549V77.25H529.7V80h-5.52v2.76h-5.52v2.76H515.9v2.76h-2.76V91h-2.76V93.8h-2.75v5.52h-2.76v5.52h-2.76v11h-2.76v30.34h2.76v11h2.76v5.52h2.76v5.52h2.75v2.75h2.76v2.76h2.76v2.76h2.76v2.76h5.52v2.76h8.28v2.76Z"/><path d="M645.57,124.15v5.52h11V149h2.76v8.28h2.76v5.52h2.76v5.52h2.76v2.75h2.76v2.76h2.76v2.76h2.75v2.76h5.52v2.76h8.28v2.76h16.55v-2.76h11v-2.76h5.52v-2.76h2.76v-2.76h2.75v-2.76h2.76V168.3h2.76v-2.76h2.76V160h2.76v5.52h-2.76v8.27h-2.76v5.52h-2.76v2.76h-2.76v2.76h-2.75v2.76h-2.76v2.76h-2.76v2.76H717.3v2.75h-5.52v2.76H703.5v2.76H678.67v-2.76h-11v-2.76h-5.52v-2.75H656.6v-2.76h-5.52v-2.76h-2.76v-2.76h-2.75v-2.76h-2.76v-2.76h-2.76v-5.52h-2.76V168.3h-2.76v-5.52h-2.76V154.5H629V118.63h2.76v-8.27h2.76v-8.28h2.76V96.56h2.76V93.8h2.76V88.29h2.76V85.53h2.75V82.77h2.76V80h2.76V77.25h5.52V74.49h2.76V71.73h5.52V69h8.27V66.21h24.83V69H709v2.76h5.52v2.76h5.52v2.76h2.76V80h2.76v2.76h2.75v2.76h2.76V91h2.76V93.8h2.76v8.28h2.76v13.8h2.76v8.27Zm69-8.27v-11h-2.76v-11H709V88.29h-2.76V85.53H703.5V82.77h-2.76V80h-5.51V77.25H678.67V80h-5.51v2.76h-5.52v5.52h-2.76V91h-2.76v5.52h-2.76v11H656.6v8.28Z"/><path d="M824.89,198.64h-69v-8.27h13.79v-2.76h2.76v-2.76h2.76v-2.76H778v-160h-2.76V19.31h-2.76V16.55H767V13.79h-5.52V11h-5.51V8.28h11V5.52h13.8V2.76h11V0h11V179.33h2.76v5.52h2.76v2.76h2.76v2.76h13.79Z"/><path d="M885.58,201.4H863.51v-2.76h-8.27v-2.76h-5.52v-2.75H847v-2.76H844.2v-2.76h-2.76v-2.76h-2.76v-11h-2.76v-11h2.76V154.5h2.76V149h2.76v-2.76H847v-2.76h2.76v-2.75h5.52V138h5.51v-2.76H869v-2.76h5.52v-2.76h8.28v-2.76h8.27v-2.76h8.28v-2.76h8.28v-2.76h5.51V93.8h-2.76V88.29h-2.75V85.53H904.9V82.77h-2.76V80h-2.76V77.25H877.31V80H869v2.76h-2.76v2.76h-2.76v2.76h-2.76V91H869v13.8h-2.76v5.52h-2.76v2.76H849.72v-2.76H847V107.6H844.2v-5.52h-2.76V93.8h2.76V88.29H847V82.77h2.76V80h2.76V77.25H858V74.49h2.76V71.73h5.52V69h11V66.21h30.35V69h8.27v2.76h5.52v2.76H927v2.76h2.76V80h2.76v2.76h2.76v5.52H938V93.8h2.76v88.29h2.76v2.76h13.8v-2.76h2.76v-2.76h2.75v2.76h-2.75v5.52h-2.76v2.76h-2.76v2.76H951.8v2.75h-5.52v2.76H938v2.76h-5.51v-2.76h-8.28v-2.76h-5.52v-5.51h-2.76v-11h2.76v-5.52h2.76V168.3h-2.76v2.75h-2.76v2.76h-2.76v5.52h-2.76v2.76h-2.75v2.76H904.9v2.76h-2.76v2.76h-2.76v2.76h-2.76v2.75H891.1v2.76h-5.52ZM909.86,49.66h-5.51V46.9h-5.52V44.14h-2.76V41.38h-5.52V38.62H885V35.87h-5.52V33.11H874V30.35h-5.52V27.59h-2.76V24.83H860.2V22.07h-2.76V19.31h-2.76V5.52h2.76V2.76h2.76V0H874V2.76h2.76V5.52h2.75V8.28h2.76V11H885v2.75h2.76v5.52h2.76v2.76h2.76v5.52h2.76v2.76h2.76v5.52h2.76v2.75h2.76v2.76h2.75V46.9h2.76Zm-21.52,138v-2.76h5.52v-2.76h5.52v-2.76h2.76v-2.76h2.76v-2.76h2.76v-2.76h2.75v-5.51h2.76V126.91h-2.76v2.76h-8.27v2.76h-8.28v2.76h-8.28V138h-5.51v2.76h-5.52v2.75H869v2.76h-2.76V149h-2.76v5.52h-2.76v19.31h2.76v5.52h2.76v2.76H869v2.76h8.28v2.76Z"/><path d="M1109.05,201.4H1087v-2.76h-11v-2.76h-5.52v-2.75h-2.76v-2.76h-2.76v-2.76h-2.76v-2.76h-2.76v-2.76h-2.76v-2.76h-2.76v-5.52h-2.75V168.3h-2.76v-5.52h-2.76V149h-2.76V129.67h2.76V115.88h2.76V107.6h2.76v-5.52h2.75V96.56h2.76V93.8h2.76V88.29h2.76V85.53h2.76V82.77h2.76V80h2.76V77.25H1076V74.49h5.51V71.73H1087V69h8.28V66.21h30.35V69h11v2.76h2.76V22.07h-2.76V19.31h-2.76V16.55h-5.51V13.79h-5.52V11h-5.52V8.28h11V5.52h13.79V2.76h11V0h11V179.33H1167v5.52h5.52v2.76H1178v2.76h5.51v2.76h-2.75v2.75h-19.32v2.76h-19.31v2.76h-2.76V182.09h2.76v-5.52h2.76v-2.76h2.76v-8.27h-2.76v2.76h-2.76v5.51h-2.76v2.76h-2.76v2.76h-2.76v5.52h-2.76v2.76h-2.75v2.76h-5.52v2.76h-2.76v2.75h-5.52v2.76h-5.52Zm5.52-16.55v-2.76h5.52v-2.76h5.52v-2.76h5.51v-2.76h2.76v-2.76h2.76V168.3h2.76v-80h-2.76V85.53h-2.76V82.77h-5.51V80h-8.28V77.25h-19.31V80h-5.52v2.76h-5.52v2.76H1087v2.76h-2.76V91h-2.76V93.8h-2.76v5.52H1076v5.52h-2.76v11h-2.76v30.34h2.76v11H1076v5.52h2.75v5.52h2.76v2.75h2.76v2.76H1087v2.76h2.76v2.76h5.52v2.76h8.28v2.76Z"/><path d="M1216.65,124.15v5.52h11V149h2.76v8.28h2.76v5.52H1236v5.52h2.76v2.75h2.76v2.76h2.76v2.76H1247v2.76h5.52v2.76h8.28v2.76h16.55v-2.76h11v-2.76h5.52v-2.76h2.76v-2.76h2.75v-2.76h2.76V168.3h2.76v-2.76h2.76V160h2.76v5.52h-2.76v8.27h-2.76v5.52h-2.76v2.76h-2.76v2.76h-2.75v2.76h-2.76v2.76h-2.76v2.76h-2.76v2.75h-5.52v2.76h-8.28v2.76h-24.83v-2.76h-11v-2.76h-5.52v-2.75h-5.52v-2.76h-5.52v-2.76h-2.75v-2.76h-2.76v-2.76h-2.76v-2.76h-2.76v-5.52h-2.76V168.3h-2.76v-5.52h-2.76V154.5h-2.76V118.63h2.76v-8.27h2.76v-8.28h2.76V96.56h2.76V93.8h2.76V88.29h2.76V85.53h2.76V82.77h2.75V80h2.76V77.25h5.52V74.49h2.76V71.73h5.52V69H1247V66.21h24.84V69h8.27v2.76h5.52v2.76h5.52v2.76h2.76V80h2.76v2.76h2.75v2.76h2.76V91h2.76V93.8h2.76v8.28h2.76v13.8h2.76v8.27Zm69-8.27v-11h-2.76v-11h-2.76V88.29h-2.76V85.53h-2.76V82.77h-2.75V80h-5.52V77.25h-16.56V80h-5.51v2.76h-5.52v5.52H1236V91h-2.76v5.52h-2.76v11h-2.76v8.28Z"/><path d="M1464.94,198.64h-69v-8.27h13.79v-2.76h2.76v-2.76h2.76v-2.76H1418v-160h-2.76V19.31h-2.76V16.55H1407V13.79h-5.51V11H1396V8.28h11V5.52h13.8V2.76h11V0h11V179.33h2.76v5.52h2.76v2.76h2.76v2.76h13.79Z"/><path d="M1525.63,201.4h-22.07v-2.76h-8.27v-2.76h-5.52v-2.75H1487v-2.76h-2.76v-2.76h-2.76v-2.76h-2.76v-11H1476v-11h2.76V154.5h2.76V149h2.76v-2.76H1487v-2.76h2.76v-2.75h5.52V138h5.51v-2.76h8.28v-2.76h5.52v-2.76h8.28v-2.76h8.27v-2.76h8.28v-2.76h8.28v-2.76h5.51V93.8h-2.75V88.29h-2.76V85.53H1545V82.77h-2.76V80h-2.76V77.25h-22.07V80h-8.28v2.76h-2.76v2.76h-2.76v2.76h-2.76V91h8.28v13.8h-2.76v5.52h-2.76v2.76h-13.79v-2.76H1487V107.6h-2.76v-5.52h-2.76V93.8h2.76V88.29H1487V82.77h2.76V80h2.76V77.25h5.52V74.49h2.75V71.73h5.52V69h11V66.21h30.35V69H1556v2.76h5.52v2.76H1567v2.76h2.76V80h2.76v2.76h2.76v5.52h2.75V93.8h2.76v88.29h2.76v2.76h13.8v-2.76h2.76v-2.76h2.76v2.76h-2.76v5.52h-2.76v2.76h-2.76v2.76h-2.76v2.75h-5.52v2.76h-8.28v2.76h-5.51v-2.76h-8.28v-2.76h-5.52v-5.51H1556v-11h2.76v-5.52h2.76V168.3h-2.76v2.75H1556v2.76h-2.76v5.52h-2.75v2.76h-2.76v2.76H1545v2.76h-2.76v2.76h-2.76v2.76h-2.76v2.75h-5.52v2.76h-5.52Zm2.76-13.79v-2.76h5.52v-2.76h5.52v-2.76h2.76v-2.76H1545v-2.76h2.76v-2.76h2.76v-5.51h2.75V126.91h-2.75v2.76h-8.28v2.76h-8.28v2.76h-8.28V138h-5.51v2.76h-5.52v2.75h-5.52v2.76h-2.76V149h-2.76v5.52h-2.76v19.31h2.76v5.52h2.76v2.76h2.76v2.76h8.28v2.76Z"/><path d="M1751.86,204.16h-2.76V201.4h-2.76v-5.52h-2.75v-5.51h-2.76v-5.52h-2.76v-5.52h-2.76v-8.28h-2.76v-5.51h-2.76V160H1727V154.5h-2.76V149h-2.76v-5.52h-2.76V138H1716v-8.28h-2.76v-5.52h-2.76v-5.52h-2.76v-5.51H1705V107.6h-2.76v-5.52h-2.76V96.56h-2.76V91h-2.76V85.53h-2.75V82.77h-2.76V80h-2.76V77.25h-8.28V69h63.46v8.28h-11V80h-5.52v5.52h-2.76v2.76h2.76v8.27H1727v5.52h2.76v5.52h2.76v8.28h2.76v5.51h2.76v5.52h2.76v5.52h2.76V138h2.75v5.51h2.76V149h2.76v8.28h2.76v5.52h-2.76v8.27h2.76v-5.51h2.76V160h2.76V154.5h2.76V149h2.76v-5.52h2.76V138h2.75v-5.52h2.76v-5.52h2.76v-5.52h2.76v-5.51h2.76v-5.52H1785v-5.52h2.76V96.56h2.76v-11h-2.76V80h-5.52V77.25h-8.28V69h49.66v8.28h-5.51V80h-2.76v2.76h-5.52v5.52H1807V91h-2.76v5.52h-2.76v5.52h-2.76v5.52H1796v5.52h-2.76v5.51h-2.76v5.52h-2.76v5.52H1785v5.52h-2.76v5.52h-2.76v5.51h-2.76v5.52h-2.76v5.52h-2.76v5.52h-2.75v8.27h-2.76v2.76h-2.76v8.28h-2.76v5.52h-2.76v5.52h-2.76v5.51h-2.76Z"/><path d="M1878.77,201.4H1856.7v-2.76h-8.28v-2.76h-5.52v-2.75h-2.76v-2.76h-2.75v-2.76h-2.76v-2.76h-2.76v-11h-2.76v-11h2.76V154.5h2.76V149h2.76v-2.76h2.75v-2.76h2.76v-2.75h5.52V138h5.52v-2.76h8.28v-2.76h5.51v-2.76H1876v-2.76h8.28v-2.76h8.27v-2.76h8.28v-2.76h5.52V93.8h-2.76V88.29h-2.76V85.53h-2.76V82.77h-2.76V80h-2.76V77.25h-22.07V80h-8.27v2.76h-2.76v2.76h-2.76v2.76h-2.76V91h8.28v13.8h-2.76v5.52h-2.76v2.76h-13.8v-2.76h-2.76V107.6h-2.75v-5.52h-2.76V93.8h2.76V88.29h2.75V82.77h2.76V80h2.76V77.25h5.52V74.49h2.76V71.73h5.52V69h11V66.21h30.35V69h8.28v2.76h5.52v2.76h5.51v2.76h2.76V80h2.76v2.76h2.76v5.52h2.76V93.8H1934v88.29h2.76v2.76h13.79v-2.76h2.76v-2.76H1956v2.76h-2.76v5.52h-2.76v2.76h-2.76v2.76H1945v2.75h-5.51v2.76h-8.28v2.76h-5.52v-2.76h-8.28v-2.76h-5.51v-5.51h-2.76v-11h2.76v-5.52h2.76V168.3h-2.76v2.75h-2.76v2.76h-2.76v5.52h-2.76v2.76h-2.76v2.76h-2.76v2.76h-2.76v2.76h-2.76v2.76h-2.75v2.75h-5.52v2.76h-5.52Zm2.76-13.79v-2.76h5.52v-2.76h5.51v-2.76h2.76v-2.76h2.76v-2.76h2.76v-2.76h2.76v-5.51h2.76V126.91h-2.76v2.76h-8.28v2.76h-8.27v2.76h-8.28V138h-5.52v2.76h-5.52v2.75h-5.51v2.76h-2.76V149h-2.76v5.52h-2.76v19.31h2.76v5.52h2.76v2.76h2.76v2.76h8.27v2.76Z"/><path d="M2033.27,198.64h-69v-8.27h13.8v-2.76h2.76v-2.76h2.76v-2.76h2.76v-160h-2.76V19.31h-2.76V16.55h-5.52V13.79h-5.52V11h-5.52V8.28h11V5.52h13.79V2.76h11V0h11V179.33H2014v5.52h2.76v2.76h2.76v2.76h13.8Z"/><path d="M2113.27,198.64h-69v-8.27h13.79v-2.76h2.76v-2.76h2.76v-2.76h2.76v-160h-2.76V19.31h-2.76V16.55h-5.52V13.79h-5.51V11h-5.52V8.28h11V5.52h13.8V2.76h11V0h11V179.33H2094v5.52h2.76v2.76h2.76v2.76h13.79Z"/><path d="M2143.62,124.15v5.52h11V149h2.76v8.28h2.76v5.52h2.76v5.52h2.76v2.75h2.76v2.76h2.76v2.76H2174v2.76h5.52v2.76h8.28v2.76h16.55v-2.76h11v-2.76h5.52v-2.76h2.76v-2.76h2.75v-2.76h2.76V168.3h2.76v-2.76h2.76V160h2.76v5.52h-2.76v8.27h-2.76v5.52h-2.76v2.76h-2.76v2.76h-2.75v2.76h-2.76v2.76h-2.76v2.76h-2.76v2.75h-5.52v2.76h-8.28v2.76h-24.83v-2.76h-11v-2.76h-5.52v-2.75h-5.52v-2.76h-5.52v-2.76h-2.75v-2.76h-2.76v-2.76h-2.76v-2.76h-2.76v-5.52h-2.76V168.3h-2.76v-5.52h-2.76V154.5h-2.76V118.63h2.76v-8.27h2.76v-8.28h2.76V96.56h2.76V93.8h2.76V88.29h2.76V85.53h2.76V82.77h2.75V80h2.76V77.25h5.52V74.49h2.76V71.73h5.52V69H2174V66.21h24.84V69h8.27v2.76h5.52v2.76h5.52v2.76h2.76V80h2.76v2.76h2.75v2.76h2.76V91h2.76V93.8h2.76v8.28h2.76v13.8h2.76v8.27Zm69-8.27v-11h-2.76v-11h-2.76V88.29h-2.76V85.53h-2.76V82.77h-2.75V80h-5.52V77.25h-16.56V80h-5.51v2.76h-5.52v5.52h-2.76V91h-2.76v5.52h-2.76v11h-2.76v8.28Zm-47.18-66.22h5.52V46.9h5.52V44.14h2.76V41.38h5.51V38.62h5.52V35.87h5.52V33.11h5.52V30.35h5.52V27.59h2.76V24.83h5.51V22.07h2.76V19.31h2.76V5.52h-2.76V2.76h-2.76V0h-13.79V2.76h-2.76V5.52h-2.76V8.28H2193V11h-2.76v2.75h-2.76v5.52h-2.76v2.76H2182v5.52h-2.76v2.76h-2.76v5.52h-2.76v2.75h-2.76v2.76h-2.76V46.9h-2.76Z"/><path d="M2273.28,124.15v5.52h11V149h2.75v8.28h2.76v5.52h2.76v5.52h2.76v2.75h2.76v2.76h2.76v2.76h2.76v2.76h5.52v2.76h8.27v2.76H2334v-2.76h11v-2.76h5.52v-2.76h2.76v-2.76h2.76v-2.76h2.76V168.3h2.76v-2.76h2.76V160h2.75v5.52h-2.75v8.27h-2.76v5.52h-2.76v2.76h-2.76v2.76h-2.76v2.76h-2.76v2.76h-2.76v2.76H2345v2.75h-5.52v2.76h-8.27v2.76h-24.83v-2.76h-11v-2.76h-5.52v-2.75h-5.51v-2.76h-5.52v-2.76H2276v-2.76h-2.76v-2.76h-2.76v-2.76h-2.76v-5.52H2265V168.3h-2.76v-5.52h-2.75V154.5h-2.76V118.63h2.76v-8.27h2.75v-8.28H2265V96.56h2.76V93.8h2.76V88.29h2.76V85.53H2276V82.77h2.76V80h2.76V77.25h5.51V74.49h2.76V71.73h5.52V69h8.28V66.21h24.83V69h8.28v2.76h5.51v2.76h5.52v2.76h2.76V80h2.76v2.76h2.76v2.76h2.76V91h2.76V93.8h2.76v8.28h2.75v13.8h2.76v8.27Zm69-8.27v-11h-2.76v-11h-2.75V88.29H2334V85.53h-2.76V82.77h-2.76V80h-5.52V77.25h-16.55V80h-5.52v2.76h-5.52v5.52h-2.76V91h-2.76v5.52h-2.76v11h-2.75v8.28Z"/><path d="M2521.58,201.4H2499.5v-2.76h-11v-2.76H2483v-2.75h-2.76v-2.76h-2.76v-2.76h-2.76v-2.76h-2.76v-2.76h-2.75v-2.76h-2.76v-5.52h-2.76V168.3h-2.76v-5.52h-2.76V149h-2.76V129.67h2.76V115.88h2.76V107.6h2.76v-5.52h2.76V96.56h2.76V93.8h2.75V88.29h2.76V85.53h2.76V82.77h2.76V80H2483V77.25h5.52V74.49H2494V71.73h5.51V69h8.28V66.21h30.35V69h11v2.76h2.75V22.07h-2.75V19.31h-2.76V16.55h-5.52V13.79h-5.52V11h-5.52V8.28h11V5.52h13.79V2.76h11V0h11V179.33h2.76v5.52H2585v2.76h5.52v2.76h5.52v2.76h-2.76v2.75H2574v2.76h-19.32v2.76h-2.76V182.09h2.76v-5.52h2.76v-2.76h2.76v-8.27h-2.76v2.76h-2.76v5.51h-2.76v2.76h-2.75v2.76h-2.76v5.52h-2.76v2.76h-2.76v2.76h-5.52v2.76h-2.76v2.75h-5.52v2.76h-5.51Zm5.51-16.55v-2.76h5.52v-2.76h5.52v-2.76h5.52v-2.76h2.76v-2.76h2.76V168.3h2.75v-80h-2.75V85.53h-2.76V82.77h-5.52V80h-8.28V77.25H2513.3V80h-5.52v2.76h-5.52v2.76h-2.76v2.76h-2.75V91H2494V93.8h-2.76v5.52h-2.76v5.52h-2.76v11H2483v30.34h2.76v11h2.76v5.52h2.76v5.52H2494v2.75h2.76v2.76h2.75v2.76h2.76v2.76h5.52v2.76h8.28v2.76Z"/><path d="M2656.76,168.3h2.76v5.51h2.75v5.52h5.52v2.76h5.52v2.76h13.8v-2.76h8.27v-2.76h5.52v-2.76h2.76v-2.76h2.76v-2.76h2.76V168.3h2.76V91h-2.76V88.29h-2.76V85.53h-5.52V82.77h-5.52V80h-5.52V77.25h8.28V74.49h11V71.73h11V69h11V66.21h5.52V179.33h2.76v5.52H2745v2.76h5.52v2.76h5.52v2.76h-2.76v2.75H2734v2.76h-19.32v2.76h-2.75V182.09h2.75v-2.76h2.76v-2.76h2.76V168.3h-2.76v2.75h-2.76v2.76h-2.75v5.52h-2.76v2.76h-2.76v2.76h-2.76v2.76h-2.76v2.76h-5.52v2.76h-2.76v2.75h-5.51v2.76h-8.28v2.76h-22.07v-2.76h-8.28v-2.76h-2.76v-2.75H2643v-2.76h-2.76v-2.76h-2.76v-2.76h-2.75v-5.52h-2.76v-80h-2.76v-11h-5.52V85.53h-2.76V82.77h-8.28V80h-2.76V77.25h8.28V74.49h11V71.73h11V69h11V66.21h5.52Z"/><path d="M2996.1,198.64H2838.84v-8.27h11v-2.76h8.28v-2.76h2.76v-5.52h2.76V24.83h-2.76V19.31h-2.76V16.55h-5.52V13.79h-13.79V5.52h80v8.27h-11v2.76h-5.52v2.76h-5.51v5.52H2894V182.09h-11v5.52h71.73v-2.76H2963v-2.76h5.52v-2.76H2974v-2.76h2.75v-5.52h2.76V168.3h2.76v-5.52h2.76v-5.52h2.76V149h2.76V138h2.76v-8.28h11v2.76h-2.75V154.5h-2.76v22.07h-2.76Z"/><path d="M3145.08,138v-2.76h-2.76v-2.76h-82.77v2.76h-2.76v5.52H3054v5.51h-2.76v8.28h-2.76V160h-2.75v8.28H3043v13.79h2.76v5.52h5.51v2.76h11v8.27h-55.18v-8.27h5.52v-2.76h2.76v-2.76h5.52v-2.76h2.75v-5.52h2.76v-2.76h2.76V168.3H3032V160h2.76V154.5h2.76V149h2.76v-8.27H3043v-5.52h2.76v-8.28h2.75v-5.52h2.76v-5.51H3054v-5.52h2.76v-8.28h2.76V96.56h2.76V91h2.76V82.77h2.76V77.25h2.76V71.73h2.76V63.46h2.75V57.94h2.76V52.42h2.76V44.14h2.76V38.62h2.76V33.11h2.76V24.83h2.76V19.31h2.76V13.79h2.76V5.52h2.75V0h5.52V5.52h2.76V11H3112v5.51h2.76v8.28h2.76v5.52h2.76v5.52H3123v8.27h2.76v5.52h2.75v5.52h2.76v8.28H3134V69h2.76v5.52h2.76v8.28h2.76v5.52h2.76V93.8h2.76v8.28h2.76v5.52h2.75v8.28h2.76v5.51h2.76v5.52h2.76v5.52h2.76v8.28h2.76v5.51h2.76v5.52h2.76V160h2.76v5.52h2.76v8.27h2.75v2.76h2.76v5.52h2.76v2.76h2.76v2.76h5.52v2.76H3203v8.27h-71.74v-8.27h11v-2.76h5.52v-5.52h2.76v-5.52h-2.76V168.3h-2.76v-5.52h-2.76V154.5h-2.76V149h-2.76v-8.27H3134V138Zm-16.56-13.8v-2.76h-2.75v-8.27H3123V107.6h-2.76v-5.52h-2.76V93.8h-2.76V88.29H3112V82.77h-2.76V74.49h-2.76V69h-2.76V60.7h-2.76V55.18h-2.75V49.66h-5.52v5.52h-2.76V60.7h-2.76V69h-2.76v5.52h-2.76v8.28h-2.76v5.52h-2.76V93.8h-2.75v8.28h-2.76v5.52h-2.76v8.28h-2.76v5.51h-2.76v2.76Z"/><path d="M3263.7,179.33h2.76v2.76h2.76v2.76H3272v2.76h5.52v2.76h11v8.27h-80v-8.27h11v-2.76h8.28v-2.76h2.76v-5.52h2.76V24.83h-2.76V19.31h-2.76V16.55h-5.52V13.79h-13.8V5.52h107.6V8.28h11V11h8.28v2.75H3341v2.76h2.76v2.76h5.52v2.76H3352v2.76h2.76v2.76h2.76v5.52h2.76v5.51H3363V69h-2.76v5.52h-2.76v2.76h-2.76v5.52H3352v2.76h-2.76v2.76h-2.76V91h-2.76V93.8h-5.51v2.76h-5.52v2.76h-8.28v2.76h2.76v2.76h2.76v2.76h5.52v2.76h2.76v2.76H3341v5.51h2.76v5.52h2.76v5.52h2.76v5.52H3352v8.27h2.76V149h2.76v5.52h2.76v8.28H3363v5.52h2.75v5.51h2.76v5.52h2.76v5.52h5.52v2.76h5.52v2.76h8.28v8.27h-46.91v-2.76H3341v-8.27h-2.75v-5.52h-2.76v-8.28h-2.76v-8.27h-2.76V160h-2.76v-8.28h-2.76v-8.28h-2.76V138h-2.76v-8.28h-2.76v-5.52h-2.76v-5.52h-2.75v-5.51h-2.76v-2.76h-2.76V107.6h-8.28v-2.76h-44.14v5.52h11Zm38.63-82.77V93.8h8.28V91h5.51V88.29h5.52V85.53h2.76V82.77h2.76V77.25h2.76V71.73h2.76V41.38h-2.76V33.11h-2.76V30.35h-2.76V27.59h-2.76V24.83h-2.76V22.07h-5.52V19.31h-8.27V16.55h-52.42v5.52h11V96.56Z"/><path d="M3456.82,179.33h2.76v2.76h2.76v2.76h2.76v2.76h5.52v2.76h11v8.27h-82.77v-8.27h13.8v-2.76h5.52v-2.76H3421v-2.76h2.75v-8.28h2.76V30.35h-2.76V22.07H3421V19.31h-2.76V16.55h-5.52V13.79h-13.8V5.52h107.6V8.28h11V11h8.27v2.75h5.52v2.76h2.76v2.76h5.52v2.76h2.76v2.76h2.76v2.76h2.76v5.52h2.75v2.76h2.76v11h2.76V66.21h-2.76v8.28h-2.76V80h-2.75v5.52h-2.76v2.76h-2.76V91h-2.76V93.8h-2.76v2.76h-5.52v2.76h-2.76v2.76H3523v2.76h-8.28v2.76H3501v2.76h-55.17v5.52h11Zm41.39-80V96.56h8.27V93.8h2.76V91H3512V88.29h2.76V85.53h2.76V82.77h2.76V77.25H3523v-11h2.75V46.9H3523V38.62h-2.76V33.11h-2.76V30.35h-2.76V24.83h-5.52V22.07h-2.76V19.31h-8.27V16.55h-52.42v5.52h11V99.32Z"/></g></g></svg>