<svg xmlns="http://www.w3.org/2000/svg" viewBox="0 0 3801.19 222.38"><g id="Layer_2" data-name="Layer 2"><g id="Layer_1-2" data-name="Layer 1"><path d="M148.25,151.22v-5.93H59.3v5.93H53.37v11.86H47.44v17.79H41.51v17.79h5.93v5.93H59.3v11.86H0v-5.93H5.93v-5.93h5.93v-5.93h5.93v-5.93h5.93V186.8h5.93V174.94h5.93V157.15h5.93V145.29h5.93V133.43h5.93V115.64H59.3V103.78h5.93V91.92h5.93V74.13h5.93V62.27H83V50.41H89V32.62h5.93V20.76h5.93V8.89h5.93V3h5.93V14.83h5.93V32.62h5.93V44.48h5.93V56.34h5.93V74.13h5.93V86h5.93v17.79h5.93v11.86h5.94V127.5H166v17.79H172v11.86h5.93V169h5.93V186.8h5.93v11.86h5.93v5.93h11.86v5.93h5.93v5.93h-77.1v-5.93h5.93v-5.93h11.86V180.87h-5.93V163.08h-5.93V151.22ZM94.88,50.41V68.2H89V80.06H83V91.92H77.09v17.79H71.16v11.86H65.23v11.86h65.23V121.57h-5.93V109.71H118.6V91.92h-5.93V80.06h-5.93V62.27h-5.93V50.41Z"/><path d="M260.92,192.73h5.94v5.93h35.58v-5.93h5.93V186.8h5.93v-5.93h5.93V109.71H314.3V97.85h-5.93V91.92H296.51V86h11.86V80.06H338V74.13h11.86V204.59h11.86v5.93H349.88v5.93H320.23V192.73h5.93V186.8h-5.93v5.93H314.3v5.93h-5.93v5.93h-5.93v5.93h-5.93v5.93H249.06v-5.93h-5.93v-5.93H237.2v-5.93h-5.93V103.78h-5.93V97.85h-5.93V91.92H207.55V86h17.79V80.06h23.72V74.13h11.86Z"/><path d="M486.27,115.64V127.5H385.45V115.64Z"/><path d="M587.08,216.45H539.64v-5.93H527.78v-5.93h-5.93v-5.93h-5.93V186.8H510V163.08h-5.93V145.29H510V121.57h5.93V109.71h5.93V97.85h5.93V91.92h5.93V86h11.86V80.06h11.86V74.13h41.51v5.93H610.8V26.69h-5.93V20.76H593V8.89h29.65V3h17.79V204.59h17.79v5.93H646.38v5.93H610.8V192.73h5.93V186.8H610.8v5.93h-5.93v5.93h-5.93v5.93H593v5.93h-5.93ZM593,198.66v-5.93h11.86V186.8h5.93v-89h-5.93V91.92H593V86H563.36v5.93H551.5v5.93h-5.93v11.86h-5.93v11.86h-5.93v41.51h5.93v17.79h5.93v5.93h5.93v5.93h5.93v5.93Z"/><path d="M693.82,139.36v5.93h11.86V169h5.93v11.86h5.93v11.86H729.4v5.93h41.51v-5.93h11.86V186.8h5.93v5.93h-5.93v11.86h-5.93v5.93H765v5.93H711.61v-5.93H699.75v-5.93h-5.93v-5.93h-5.93V186.8H682v-5.93H676v-59.3H682V109.71h5.93V97.85h5.93V91.92h5.93V86h5.93V80.06h17.79V74.13h35.58v5.93h11.86V86h5.93v5.93h5.93v5.93h5.93v11.86h5.93v29.65ZM765,127.5V109.71h-5.93V97.85h-5.93V91.92h-5.93V86H723.47v5.93h-5.93v5.93h-5.93v11.86h-5.93V127.5Zm23.72,53.37v-5.93h5.93v5.93Z"/><path d="M883.58,216.45H812.42v-5.93h5.93v-5.93h11.86v-5.93h5.93v-172h-5.93V20.76H818.35V8.89H848V3h17.79V204.59h5.93v5.93h11.86Z"/><path d="M960.68,216.45H913.23v-5.93H907.3v-5.93h-5.93V163.08h5.93v-5.93h11.87v-5.93H931v-5.93h11.86v-5.93h17.79v-5.93H984.4V103.78h-5.93V91.92h-5.93V86H937v5.93H931v5.93h-5.94v5.93H937v5.93H931v11.86H907.3V97.85h5.93V86h11.86V80.06H937V74.13h41.51v5.93h17.79V86h5.93v5.93h5.93v5.93h5.93V204.59h11.86v-5.93h11.86v5.93h-5.93v5.93H1020v5.93H990.33v-5.93H984.4V198.66h-5.93v5.93h-5.93v5.93H960.68ZM981.43,53.37H975.5V47.44H963.64V41.51H951.78V35.58H939.92V29.65H928.06V23.72h-5.93V5.93h5.93V0h17.79V5.93h5.93v5.93h5.93V23.72h5.93v5.93h5.93V41.51h5.93v5.93h5.93ZM960.68,204.59v-5.93h5.93v-5.93h11.86V186.8h5.93V139.36h-5.93v5.93H960.68v5.93H942.89v5.93H937v5.93H931v29.65H937v11.86Z"/><path d="M1197.88,216.45h-47.44v-5.93h-11.86v-5.93h-5.93v-5.93h-5.93V186.8h-5.93V163.08h-5.93V145.29h5.93V121.57h5.93V109.71h5.93V97.85h5.93V91.92h5.93V86h11.86V80.06h11.86V74.13h41.51v5.93h11.86V26.69h-5.93V20.76h-11.86V8.89h29.65V3h17.79V204.59H1269v5.93h-11.86v5.93H1221.6V192.73h5.93V186.8h-5.93v5.93h-5.93v5.93h-5.93v5.93h-5.93v5.93h-5.93Zm5.93-17.79v-5.93h11.86V186.8h5.93v-89h-5.93V91.92h-11.86V86h-29.65v5.93H1162.3v5.93h-5.93v11.86h-5.93v11.86h-5.93v41.51h5.93v17.79h5.93v5.93h5.93v5.93h5.93v5.93Z"/><path d="M1304.62,139.36v5.93h11.86V169h5.93v11.86h5.93v11.86h11.86v5.93h41.51v-5.93h11.86V186.8h5.93v5.93h-5.93v11.86h-5.93v5.93h-11.86v5.93h-53.37v-5.93h-11.86v-5.93h-5.93v-5.93h-5.93V186.8h-5.93v-5.93h-5.93v-59.3h5.93V109.71h5.93V97.85h5.93V91.92h5.93V86h5.93V80.06h17.79V74.13h35.58v5.93h11.86V86h5.93v5.93h5.93v5.93h5.93v11.86h5.93v29.65Zm71.16-11.86V109.71h-5.93V97.85h-5.93V91.92H1358V86h-23.72v5.93h-5.93v5.93h-5.93v11.86h-5.93V127.5Zm23.72,53.37v-5.93h5.93v5.93Z"/><path d="M1565.54,216.45h-71.16v-5.93h5.93v-5.93h11.86v-5.93h5.93v-172h-5.93V20.76h-11.86V8.89H1530V3h17.79V204.59h5.93v5.93h11.86Z"/><path d="M1642.64,216.45h-47.45v-5.93h-5.93v-5.93h-5.93V163.08h5.93v-5.93h11.86v-5.93H1613v-5.93h11.86v-5.93h17.8v-5.93h23.72V103.78h-5.93V91.92h-5.93V86h-35.58v5.93H1613v5.93h-5.93v5.93h11.87v5.93H1613v11.86h-23.72V97.85h5.93V86h11.86V80.06h11.87V74.13h41.51v5.93h17.79V86h5.93v5.93h5.93v5.93H1696V204.59h11.86v-5.93h11.86v5.93h-5.93v5.93h-11.86v5.93h-29.65v-5.93h-5.93V198.66h-5.93v5.93h-5.93v5.93h-11.86Zm0-11.86v-5.93h5.93v-5.93h11.86V186.8h5.93V139.36h-5.93v5.93h-17.79v5.93h-17.8v5.93h-5.92v5.93H1613v29.65h5.94v11.86Z"/><path d="M1873.91,222.38H1868v-5.93h-5.93V198.66h-5.93V186.8h-5.93V174.94h-5.93V163.08h-5.93V151.22h-5.93V139.36h-5.93V127.5h-5.93V109.71h-5.93V97.85h-5.93V91.92h-5.93V86h-11.86V74.13h71.16V86h-17.79v23.72h5.93v11.86h5.93v17.79h5.93v11.86H1868v11.86h5.93V186.8h5.93V169h5.93V157.15h5.93V145.29h5.93V133.43h5.93V121.57h5.93V109.71h5.93V91.92h-5.93V86h-11.86V74.13H1951V86h-11.86v5.93h-5.93v11.86h-5.93v11.86h-5.93V127.5h-5.93v11.86h-5.93v11.86h-5.93v11.86h-5.93v11.86h-5.93v17.79h-5.93v11.86h-5.93v11.86h-5.93Z"/><path d="M2016.23,216.45h-47.44v-5.93h-5.93v-5.93h-5.93V163.08h5.93v-5.93h11.86v-5.93h11.86v-5.93h11.86v-5.93h17.79v-5.93H2040V103.78H2034V91.92h-5.93V86h-35.58v5.93h-5.93v5.93h-5.93v5.93h11.86v5.93h-5.93v11.86h-23.72V97.85h5.93V86h11.86V80.06h11.86V74.13H2034v5.93h17.79V86h5.94v5.93h5.92v5.93h5.94V204.59h11.86v-5.93h11.86v5.93h-5.93v5.93h-11.86v5.93h-29.66v-5.93H2040V198.66H2034v5.93h-5.93v5.93h-11.86Zm0-11.86v-5.93h5.93v-5.93H2034V186.8H2040V139.36H2034v5.93h-17.79v5.93h-17.79v5.93h-5.93v5.93h-5.93v29.65h5.93v11.86Z"/><path d="M2170.42,216.45h-71.16v-5.93h5.93v-5.93h11.86v-5.93H2123v-172h-5.93V20.76h-11.86V8.89h29.65V3h17.79V204.59h5.93v5.93h11.86Z"/><path d="M2253.44,216.45h-71.16v-5.93h5.93v-5.93h11.86v-5.93H2206v-172h-5.93V20.76h-11.86V8.89h29.65V3h17.79V204.59h5.93v5.93h11.86Z"/><path d="M2289,139.36v5.93h11.86V169h5.93v11.86h5.93v11.86h11.86v5.93h41.51v-5.93H2378V186.8h5.93v5.93H2378v11.86H2372v5.93h-11.86v5.93h-53.37v-5.93H2295v-5.93H2289v-5.93h-5.93V186.8h-5.93v-5.93h-5.93v-59.3h5.93V109.71h5.93V97.85H2289V91.92H2295V86h5.93V80.06h17.79V74.13h35.58v5.93h11.86V86H2372v5.93H2378v5.93h5.93v11.86h5.93v29.65Zm71.16-11.86V109.71h-5.93V97.85h-5.93V91.92h-5.93V86h-23.72v5.93h-5.93v5.93h-5.93v11.86h-5.93V127.5Zm-50.4-71.16h5.93V50.41h11.86V44.48h11.86V38.55h11.86V32.62h11.86V26.69h5.93V8.89h-5.93V3h-17.79V8.89h-5.93v5.94h-5.93V26.69h-5.93v5.93h-5.93V44.48h-5.93v5.93h-5.93Zm74.12,124.53v-5.93h5.93v5.93Z"/><path d="M2431.34,139.36v5.93h11.86V169h5.93v11.86h5.93v11.86h11.86v5.93h41.51v-5.93h11.86V186.8h5.93v5.93h-5.93v11.86h-5.93v5.93H2502.5v5.93h-53.37v-5.93h-11.86v-5.93h-5.93v-5.93h-5.93V186.8h-5.93v-5.93h-5.93v-59.3h5.93V109.71h5.93V97.85h5.93V91.92h5.93V86h5.93V80.06H2461V74.13h35.58v5.93h11.86V86h5.93v5.93h5.93v5.93h5.93v11.86h5.94v29.65Zm71.16-11.86V109.71h-5.93V97.85h-5.93V91.92h-5.93V86H2461v5.93h-5.93v5.93h-5.93v11.86h-5.93V127.5Zm23.72,53.37v-5.93h5.94v5.93Z"/><path d="M2704.12,216.45h-47.44v-5.93h-11.86v-5.93h-5.93v-5.93H2633V186.8H2627V163.08h-5.93V145.29H2627V121.57H2633V109.71h5.93V97.85h5.93V91.92h5.93V86h11.86V80.06h11.86V74.13H2716v5.93h11.86V26.69h-5.93V20.76h-11.86V8.89h29.65V3h17.79V204.59h17.79v5.93h-11.86v5.93h-35.58V192.73h5.93V186.8h-5.93v5.93h-5.93v5.93H2716v5.93h-5.93v5.93h-5.94Zm5.94-17.79v-5.93h11.86V186.8h5.93v-89h-5.93V91.92h-11.86V86H2680.4v5.93h-11.86v5.93h-5.93v11.86h-5.93v11.86h-5.93v41.51h5.93v17.79h5.93v5.93h5.93v5.93h5.93v5.93Z"/><path d="M2840.52,192.73h5.93v5.93H2882v-5.93H2888V186.8h5.93v-5.93h5.93V109.71h-5.93V97.85H2888V91.92H2876.1V86H2888V80.06h29.65V74.13h11.86V204.59h11.86v5.93h-11.86v5.93h-29.65V192.73h5.93V186.8h-5.93v5.93h-5.93v5.93H2888v5.93H2882v5.93h-5.93v5.93h-47.44v-5.93h-5.93v-5.93h-5.93v-5.93h-5.93V103.78h-5.93V97.85H2799V91.92h-11.86V86h17.79V80.06h23.72V74.13h11.86Z"/><path d="M3030.28,216.45V204.59H3054V192.73h5.93V32.62H3054V20.76h-17.79V14.83h-5.93V8.89h88.95v5.94h-5.93v5.93h-17.79v5.93h-5.93v172h-11.86v5.93h83v-5.93h11.86v-5.93h5.93V186.8h5.93V174.94h5.93V157.15h5.93V145.29h11.86v11.86h-5.93v47.44h-5.93v11.86Z"/><path d="M3356.44,151.22v-5.93h-89v5.93h-5.93v11.86h-5.93v17.79h-5.93v17.79h5.93v5.93h11.86v11.86h-59.3v-5.93h5.93v-5.93H3220v-5.93H3226v-5.93h5.93V186.8h5.93V174.94h5.93V157.15h5.93V145.29h5.93V133.43h5.93V115.64h5.93V103.78h5.94V91.92h5.92V74.13h5.94V62.27h5.93V50.41h5.93V32.62h5.93V20.76H3309V8.89h5.93V3h5.93V14.83h5.93V32.62h5.93V44.48h5.93V56.34h5.93V74.13h5.93V86h5.93v17.79h5.93v11.86h5.93V127.5h5.93v17.79h5.93v11.86h5.93V169H3392V186.8H3398v11.86h5.93v5.93h11.86v5.93h5.93v5.93h-77.09v-5.93h5.93v-5.93h11.86V180.87h-5.93V163.08h-5.93V151.22ZM3303.07,50.41V68.2h-5.93V80.06h-5.93V91.92h-5.93v17.79h-5.94v11.86h-5.92v11.86h65.23V121.57h-5.93V109.71h-5.93V91.92h-5.93V80.06h-5.93V62.27H3309V50.41Z"/><path d="M3486.9,198.66h5.93v5.93h17.79v5.93h5.93v5.93h-89V204.59h23.72v-5.93h5.94v-172h-5.94V20.76h-17.79V14.83h-5.93V8.89h124.54v5.94h17.79v5.93h5.93v5.93h11.86V38.55h5.93V56.34h5.93v5.93h-5.93V80.06h-5.93V91.92h-5.93v5.93h-5.93v5.93h-5.93v5.93h-17.79v5.93H3564v5.93h5.93v5.93h5.93v11.86h5.93v17.79h5.93V169h5.93v11.86h5.93v17.79h5.93v5.93h17.79v5.93h5.93v5.93h-53.37v-5.93h-5.93V198.66H3564V180.87h-5.93V163.08h-5.93V151.22h-5.93V133.43h-5.93V127.5h-5.93v-5.93h-5.93v-5.93H3475v5.93h11.86Zm53.37-94.88V97.85h11.86V91.92h5.93V80.06H3564V44.48h-5.93V32.62h-5.93V26.69h-11.86V20.76H3475v5.93h11.86v77.09Z"/><path d="M3694.45,198.66h5.93v5.93h17.79v5.93h5.93v5.93h-88.95V204.59h23.72v-5.93h5.93v-166h-5.93V20.76h-17.79V14.83h-5.93V8.89h124.53v5.94h11.86v5.93h11.86v5.93h5.93v5.93h5.93v5.93h5.93V86h-5.93V97.85h-5.93v5.93h-5.93v5.93h-11.86v5.93h-17.79v5.93h-71.16v5.93h11.86Zm53.37-88.95v-5.93h5.93V97.85h5.93V91.92h5.93V80.06h5.93V50.41h-5.93V38.55h-5.93V26.69h-11.86V20.76h-65.23v5.93h11.86v83Z"/></g></g></svg>
