<svg id="Layer_1" data-name="Layer 1" xmlns="http://www.w3.org/2000/svg" viewBox="0 0 3535.25 283.24"><path d="M-1468.58-1104.19h-39.6v-6.18c0-30.33,0-60.65,0-91a64.67,64.67,0,0,0-1.16-12.89c-4.3-20.75-20.42-23.91-34.7-20.11-10.77,2.88-17.32,10.81-21.75,20.6a57.71,57.71,0,0,0-4.86,24.3q.08,39.5,0,79v6.25H-1610c-.1-1.94-.28-3.86-.28-5.77q0-45.24,0-90.48a72.82,72.82,0,0,0-.74-11c-1.51-9.6-4.92-18.34-14.83-22.06-10.82-4.07-21.35-3.08-30.66,4.36-7.71,6.18-12.34,14.45-14.4,23.95a86.14,86.14,0,0,0-1.86,17.32c-.19,25.83-.08,51.66-.08,77.48v6.15h-39.59v-163.57H-1673v13.8l1.06.65c9.21-7.7,18.76-14.73,30.78-17.15a78.88,78.88,0,0,1,36.16,1c12,3.19,21.94,9.48,27.93,21.28a15.39,15.39,0,0,0,2.22-1.69c15.28-18.32,35.26-24.1,58.21-21.64a84.23,84.23,0,0,1,14.68,2.84c19.75,5.77,31.58,20.58,33.07,41.09.25,3.48.32,7,.32,10.49q0,53.73,0,107.47Z" transform="translate(1712.47 1335.11)"/><path d="M318.54-1118v66.17H279v-216h39c.21,4.25.41,8.44.65,13.25a25.49,25.49,0,0,0,2.88-1.81c24.81-21.62,72.48-25.32,99.77,15.53,21.74,32.55,20.61,82.23-2.87,113.45-16.72,22.22-39.27,30.16-66.44,26.48-12.08-1.64-21.86-7.56-30.55-15.71l-1.8-1.65Zm77.11-66.24c-.7-6.47-1-11.14-1.74-15.72-1.57-9.32-4.51-18.15-11.25-25.14-19.55-20.25-54-11.17-62.31,16.49a77.13,77.13,0,0,0-.87,41.94c4.06,15.84,12.76,27.3,30.2,29.87,20.29,3,36.51-6.93,42.11-26.62C393.87-1170.76,394.6-1178.45,395.65-1184.28Z" transform="translate(1712.47 1335.11)"/><path d="M1570.25-1334.78h39.21v126.4l1.3.63,61.14-60.2h49.65l.72,1-62.53,62.73,69.63,99.88h-48.43q-24-36-48.63-72.81l-22.71,24.41v48.57h-39.35Z" transform="translate(1712.47 1335.11)"/><path d="M-1285.24-1104.09h-42.36c-1.29-4.33-2.63-8.83-4.14-13.88l-4.53,3c-20.94,14-43.8,19-68.07,12-40.24-11.6-43.25-55.9-27.89-76.36a54.52,54.52,0,0,1,29.24-19.87c12.28-3.53,24.94-5.73,37.44-8.51,9.74-2.18,19.49-4.34,29.22-6.56,1.6-.36,3.13-1,4.53-1.45,2.58-11.4-1.69-19.43-12.33-22.93-11.54-3.79-23.28-3.77-35-.87-7.65,1.89-11.69,7.22-13,14.79-.39,2.29-.61,4.6-1,7.79l-39.27-1.56c-.24-9.32,1.57-17.72,6.26-25.44,8-13.15,20.17-20.6,34.66-24.35,21-5.45,42.32-5.07,63.34-.13,17.19,4,29.81,14.17,34.5,31.82,1.81,6.81,2.14,14.15,2.22,21.26.25,24.65.09,49.3.1,74C-1291.32-1129-1292.18-1116.38-1285.24-1104.09Zm-46-81.17c-6,1.67-11.42,3.28-16.88,4.61s-11.08,2.32-16.58,3.65c-7.11,1.71-14.28,3.28-21.23,5.52-6.13,2-10.69,6-12.31,12.67-2.91,11.87,3,22,15.42,25,14.72,3.5,28.47.35,40.87-8.11,5.83-4,10.07-9.68,10.57-16.85C-1330.81-1167.41-1331.27-1176.08-1331.27-1185.26Z" transform="translate(1712.47 1335.11)"/><path d="M501.24-1216.95l-39.33-1.62c-.07-9.42,1.58-17.85,6.36-25.57,8.94-14.43,22.62-21.77,38.63-25.2a134,134,0,0,1,59,.78c22.56,5.25,35.91,21.24,36.76,44.44.69,18.8.21,37.64.36,56.47.11,15.49.05,31,.78,46.45.27,5.63,2.63,11.16,4.11,17H567.53c-3.72-3.58-3-9.06-4.54-13.2-7.73,4-15.09,8.67-23,11.8a76.6,76.6,0,0,1-49.5,2.82c-23-6.37-37.17-26-36.72-49.88.36-19.46,9.86-33,26.6-42,11.18-6,23.49-8.25,35.74-10.73,13.37-2.71,26.72-5.54,40.06-8.39,2.25-.48,4.42-1.32,6.46-2,2.33-12.38-1.92-19.74-13.4-23.27a62.4,62.4,0,0,0-32.6-.88c-9,2.05-13.55,7.41-14.61,16.68C501.77-1221.41,501.55-1219.61,501.24-1216.95Zm61.63,32.16c-11.07,2.58-22,5.08-33,7.7-7.09,1.71-14.26,3.25-21.2,5.47-6.27,2-11.09,6-12.68,12.9-2.77,12,3.11,21.93,15.48,24.86,14.86,3.51,28.72.32,41.18-8.37,5.33-3.72,9.52-9,10-15.49C563.39-1166.78,562.87-1175.92,562.87-1184.79Z" transform="translate(1712.47 1335.11)"/><path d="M1358.15-1104.24h-42.46c-1.24-4.3-2.56-8.86-4-13.73-3.22,2.09-6.3,4.27-9.55,6.16-19.79,11.51-41,15.21-63,8.84-40.33-11.67-44-56.93-26.77-78a55,55,0,0,1,28-18.3c12.3-3.48,24.95-5.72,37.45-8.51,9.74-2.17,19.49-4.33,29.23-6.55,1.59-.37,3.12-1,4.54-1.5,2.43-11.94-1.76-19.52-12.84-23s-22.65-3.52-34-.84c-8.1,1.91-12.3,7.46-13.55,15.46-.34,2.11-.46,4.26-.78,7.25l-39.34-1.57c-.19-9.22,1.45-17.5,6-25.11,7.92-13.21,20-20.77,34.5-24.58,21.38-5.62,43-5.19,64.33-.1,22,5.25,35.13,21.55,35.87,44.14.61,18.3.26,36.64.31,55,0,7.5-.12,15,0,22.49C1352.41-1132.53,1350.31-1118,1358.15-1104.24Zm-46.1-80.46c-13.19,3-26,5.79-38.77,8.83a150.89,150.89,0,0,0-17.22,5,16.53,16.53,0,0,0-11,12.57c-2.49,11.82,3.37,21.53,15.61,24.41,14.9,3.5,28.79.32,41.25-8.45,5.47-3.86,9.58-9.26,10-16.07C1312.49-1167.15,1312.05-1176,1312.05-1184.7Z" transform="translate(1712.47 1335.11)"/><path d="M-916.56-1104.09H-959c-1.27-4.31-2.61-8.84-4.1-13.85-1.32.85-2.65,1.66-3.94,2.54-21,14.3-44,19.4-68.45,12.44-40.66-11.55-43.91-56.73-27.36-77.46a55.26,55.26,0,0,1,28.77-18.91c12.15-3.43,24.63-5.66,37-8.39,11.34-2.51,22.7-5,33.65-7.39,2.91-11.68-1.19-19.87-11.49-23.4-11.66-4-23.58-4-35.48-1.07-7.91,1.93-11.85,7.53-13.2,15.23-.36,2.12-.49,4.28-.83,7.37l-39.23-1.56c-.26-9.12,1.34-17.38,5.89-25,8-13.38,20.26-21,34.93-24.79,20.7-5.39,41.65-5.05,62.38-.36,23.71,5.38,37,21.57,37.5,45.84.54,27.48.2,55,.26,82.47C-922.76-1128.25-923.52-1116-916.56-1104.09Zm-46.53-80.64c-11.38,2.65-22.39,5.15-33.36,7.78-6.95,1.67-14,3.19-20.74,5.39-6.5,2.11-11.25,6.39-12.72,13.5-2.42,11.73,3.61,21.42,15.87,24.25,14.72,3.41,28.44.23,40.8-8.3,5.19-3.58,9.49-8.58,10-15C-962.57-1166.3-963.09-1175.6-963.09-1184.73Z" transform="translate(1712.47 1335.11)"/><path d="M-21.12-1186.13c-.39,12.3-2.2,24.24-6.62,35.74-8.88,23.1-25,38.69-48.6,46a97.56,97.56,0,0,1-59,0c-21.47-6.69-37.32-20.41-46.3-41.15-11.4-26.34-11.73-53.19-.61-79.62,11-26.24,31.65-40.92,59.43-45.58,16.68-2.8,33.28-1.93,49.27,3.86,28.63,10.37,44.4,31.68,50.26,60.88C-22-1199.46-21.83-1192.74-21.12-1186.13Zm-127.23.78c0,8.95,1.52,17.65,5.57,25.65,7.37,14.58,19.17,22.78,35.71,23.22s29.63-6.59,37.21-21.41c9.55-18.67,9.56-38-.18-56.62-7.71-14.71-20.7-21.67-37.42-21.07s-28.21,8.95-35.47,23.55C-147.09-1203.67-148.41-1194.62-148.35-1185.35Z" transform="translate(1712.47 1335.11)"/><path d="M640-1267.87h39.36c.14,2.13.38,4.22.39,6.31,0,29.49,0,59,.07,88.46a86.24,86.24,0,0,0,1.24,14.89c2,10.87,8.61,17.45,19.59,19.16,8.66,1.35,17.31,1.11,25.54-2.37,12.75-5.38,19-15.65,21-28.85a90.19,90.19,0,0,0,.9-12.94c.08-26.15,0-52.3,0-78.46v-6.2h39.54v163.58H748.34v-15.35a31.3,31.3,0,0,0-3.38,2.43c-10.46,10.53-23.18,16-37.9,16.84a91.42,91.42,0,0,1-27.28-2.15c-21.41-5.17-36.35-21.84-38.81-43.71a142.49,142.49,0,0,1-.92-15.45q-.12-50.22,0-100.45Z" transform="translate(1712.47 1335.11)"/><path d="M1428.89-1104.07h-39.33v-163.75h39.1v15.23a13.73,13.73,0,0,0,2.59-1.4c14-15.08,31.83-19.12,51.46-17.7,8.18.59,16.2,2.11,23.63,5.83,14.44,7.23,21.05,19.84,23.52,35a103.59,103.59,0,0,1,1.19,16.42c.11,35,.06,70,.06,105v5.21h-39.39c-.09-2.06-.26-4.15-.26-6.25,0-30.33.08-60.66-.11-91a57.16,57.16,0,0,0-2.15-15.23c-2.68-9.29-9.24-14.72-18.82-16.47-17.48-3.18-32.38,5.37-38.36,22.09-2.62,7.33-3.14,15-3.14,22.65q0,39,0,78Z" transform="translate(1712.47 1335.11)"/><path d="M149-1104.13H109.54c-.1-2.17-.27-4.11-.27-6,0-30.5.07-61-.11-91.49a56.06,56.06,0,0,0-2-14.75c-2.63-9.3-9.07-14.86-18.65-16.66-17.57-3.3-32.31,5.07-38.51,21.77-2.78,7.49-3.24,15.28-3.24,23.14q0,39,0,78c0,2-.17,3.9-.27,6H7.36V-1267.9H46.52v15.08c1.48-.72,2.3-.88,2.76-1.38,14.09-15,31.94-18.94,51.56-17.46,8.33.63,16.49,2.23,24,6.16,14.17,7.38,20.43,20,22.9,34.94a95.89,95.89,0,0,1,1.16,15.43c.1,35.33,0,70.65,0,106Z" transform="translate(1712.47 1335.11)"/><path d="M-846-1104.16h-39.43v-163.7h39.29v15c1.37-.52,1.92-.56,2.19-.86,14.09-15.24,32-19.46,51.86-18,8.17.62,16.19,2.13,23.61,5.86,14.44,7.26,21,19.89,23.47,35.08a102,102,0,0,1,1.15,15.92q.14,52.75.05,105.49v5.16h-39.58v-6c0-30.5.16-61-.14-91.48a56.68,56.68,0,0,0-3.16-17.52c-2.68-7.79-8.9-12.22-17-13.83-19.36-3.84-35.71,6.47-40.26,25.94a85.88,85.88,0,0,0-1.95,18.81c-.21,25.83-.09,51.66-.09,77.49Z" transform="translate(1712.47 1335.11)"/><path d="M-418.43-1168.06l33.52,17.69c-5.48,11.81-11.7,22.52-21.12,31-13.1,11.84-28.59,18-46.2,19-12.24.66-24.31-.09-36-4.2-24.87-8.73-40.43-26.53-48-51.19-6.78-22.11-6.43-44.46,2-66.2,10.88-28.12,31.88-44,61.35-48.83,14.49-2.38,28.94-1.87,43,2.71,21.18,6.88,34.38,22,42.95,42.76l-34,15.6a18.62,18.62,0,0,1-1.73-2.65c-5.73-13.65-15.85-21.77-30.62-23.07-15.75-1.4-28.26,4.85-37.21,17.93-5.23,7.63-7.45,16.32-8.18,25.4-1,12.7.52,25,6.85,36.29a38.07,38.07,0,0,0,62.55,5.82c3.27-3.92,5.57-8.65,8.25-13C-420.17-1164.44-419.51-1165.95-418.43-1168.06Z" transform="translate(1712.47 1335.11)"/><path d="M1002.92-1239.81H979.11v-28.37h23.45c.12-2.44.26-4.23.27-6,.07-7.5-.12-15,.17-22.5.85-22,11.23-33.78,32.88-37.2,13.74-2.16,27.53-1,41.7-.15v33.89c-1.47,0-2.89,0-4.3,0-5.64.13-11.34-.23-16.89.54-7.74,1.09-12.56,6.29-13.29,14.08-.51,5.42-.1,10.93-.1,17.13h34.58v28.6h-34.75v135.43h-39.91Z" transform="translate(1712.47 1335.11)"/><path d="M-1157.3-1104.32v-135.23h-23.41v-28.7h23.57c0-2.64,0-4.59,0-6.55,0-7.33-.13-14.67.16-22,.85-21.73,11.09-33.49,32.48-37,13.9-2.29,27.85-1,42.14-.23V-1300c-1.6-.07-3-.22-4.44-.19-5.64.12-11.34-.21-16.89.57-7.53,1.06-12.07,6.14-13.21,13.65a52.41,52.41,0,0,0-.4,7c-.06,3.3,0,6.61,0,10.63h35v28.6h-34.85v135.4Z" transform="translate(1712.47 1335.11)"/><path d="M-698.78-1239.79h-23.79v-28.37h23.45c.12-2.59.24-4.53.29-6.46.19-9-.07-18,.64-27,1.33-16.87,11.32-27.78,27.91-31.46,11.36-2.52,22.85-2.07,34.35-1.64,3.8.14,7.6.41,11.79.64v34.3c-2.46-.26-4.57-.57-6.69-.69-2.49-.15-5-.24-7.49-.17-14.48.41-20.51,6.55-20.71,21-.05,3.48,0,6.95,0,11.15h34.93v28.68h-34.75v135.42h-39.92Z" transform="translate(1712.47 1335.11)"/><path d="M-355.68-1239.76h-23.54V-1268h23.82v-57.87h39.65v57.42h35v28.62h-34.43c-.17,2.26-.41,4-.41,5.76,0,25.16-.08,50.33,0,75.49a69.58,69.58,0,0,0,1.45,12.85,10,10,0,0,0,9.27,8.49,107.41,107.41,0,0,0,13.9.32c3.29-.1,6.55-.77,10.29-1.25v32.32c-4.28.84-8.59,1.87-13,2.52-11.6,1.71-23.24,2.18-34.8-.29-15.59-3.33-24.63-13.37-26.35-29.24a122.2,122.2,0,0,1-.6-13q-.07-43.76,0-87.5C-355.39-1235.28-355.56-1237.23-355.68-1239.76Z" transform="translate(1712.47 1335.11)"/><path d="M866-1104.2h-38.9v-230.56H866Z" transform="translate(1712.47 1335.11)"/><path d="M1139.28-1104.16h-39.42v-163.69h39.28v20.63l1.18.68c11-19.79,29-25,50-25.46v39.82c-4.5.56-8.77,1-13,1.65-22.37,3.7-36.68,18.78-37.53,41.35-.87,23-.41,46-.53,69C1139.26-1115.08,1139.28-1109.94,1139.28-1104.16Z" transform="translate(1712.47 1335.11)"/><path d="M-608.54-1267.87h39.09v163.56h-39.09Z" transform="translate(1712.47 1335.11)"/><path d="M-258.38-1267.86h38.94v163.56h-38.94Z" transform="translate(1712.47 1335.11)"/><path d="M-569.44-1334.73v39.54h-39.12v-39.54Z" transform="translate(1712.47 1335.11)"/><path d="M-219.24-1334.62v39.48h-39.19v-39.48Z" transform="translate(1712.47 1335.11)"/><path d="M1787.66-1104.16h-8v-37.33h12l9.52,25.34h.16l9.36-25.37h12v37.34h-7.93v-28.18l-.19,0q-5.14,14.12-10.31,28.23h-6.19q-5.16-14.1-10.31-28.22l-.18,0Z" transform="translate(1712.47 1335.11)"/><path d="M1754.9-1134.63h-10.77v-6.87h30v6.86h-10.74v30.48h-8.51Z" transform="translate(1712.47 1335.11)"/></svg>